<svg width="173" height="112" viewBox="0 0 173 112" fill="none" xmlns="http://www.w3.org/2000/svg">
<path opacity="0.75" d="M51.8959 0.00175858C50.9946 -0.0405197 50.2898 0.684989 50.2898 1.58728V69.2245C50.2898 70.1268 50.9946 70.8523 51.8959 70.8101C60.1464 70.423 97.3777 66.9302 97.3777 35.4059C97.3777 3.88166 60.1464 0.388771 51.8959 0.00175858Z" fill="url(#paint0_linear_502_89)"/>
<path opacity="0.75" fill-rule="evenodd" clip-rule="evenodd" d="M53.5573 67.4339C58.4436 67.0639 67.8132 65.8375 76.3403 61.8276C85.9505 57.3082 94.1102 49.4985 94.1102 35.4059C94.1102 21.3133 85.9505 13.5036 76.3402 8.98423C67.8132 4.97428 58.4436 3.74794 53.5573 3.37792V67.4339ZM50.2898 1.58728C50.2898 0.684989 50.9946 -0.0405197 51.8959 0.00175858C60.1464 0.388771 97.3777 3.88166 97.3777 35.4059C97.3777 66.9302 60.1464 70.423 51.8959 70.8101C50.9946 70.8523 50.2898 70.1268 50.2898 69.2245V1.58728Z" fill="white"/>
<path opacity="0.75" d="M75.4221 0.00175858C74.5208 -0.0405197 73.8159 0.684989 73.8159 1.58728V69.2245C73.8159 70.1268 74.5208 70.8523 75.4221 70.8101C83.6725 70.423 120.904 66.9302 120.904 35.4059C120.904 3.88166 83.6725 0.388771 75.4221 0.00175858Z" fill="url(#paint1_linear_502_89)"/>
<path opacity="0.75" fill-rule="evenodd" clip-rule="evenodd" d="M77.0834 67.4339C81.9697 67.0639 91.3394 65.8375 99.8664 61.8276C109.477 57.3082 117.636 49.4985 117.636 35.4059C117.636 21.3133 109.477 13.5036 99.8664 8.98423C91.3394 4.97428 81.9697 3.74794 77.0834 3.37792V67.4339ZM73.8159 1.58728C73.8159 0.684989 74.5208 -0.0405197 75.4221 0.00175858C83.6725 0.388771 120.904 3.88166 120.904 35.4059C120.904 66.9302 83.6725 70.423 75.4221 70.8101C74.5208 70.8523 73.8159 70.1268 73.8159 69.2245V1.58728Z" fill="white"/>
<path d="M10.7827 111.375H0V80.9578H10.8719C13.9314 80.9578 16.5652 81.5667 18.7733 82.7846C20.9813 83.9926 22.6794 85.7303 23.8676 87.9977C25.0657 90.2652 25.6647 92.9782 25.6647 96.1368C25.6647 99.3053 25.0657 102.028 23.8676 104.306C22.6794 106.583 20.9714 108.33 18.7436 109.548C16.5256 110.766 13.872 111.375 10.7827 111.375ZM6.43103 105.865H10.5154C12.4165 105.865 14.0156 105.528 15.3127 104.855C16.6197 104.172 17.5999 103.117 18.2534 101.692C18.9168 100.256 19.2485 98.4042 19.2485 96.1368C19.2485 93.8891 18.9168 92.0524 18.2534 90.6266C17.5999 89.2008 16.6246 88.1512 15.3275 87.4779C14.0304 86.8046 12.4314 86.468 10.5303 86.468H6.43103V105.865Z" fill="url(#paint2_linear_502_89)"/>
<path d="M32.5198 111.375V80.9578H44.5204C46.8176 80.9578 48.7781 81.3687 50.4019 82.1905C52.0357 83.0024 53.2783 84.156 54.1298 85.6511C54.9913 87.1363 55.422 88.8839 55.422 90.8939C55.422 92.9138 54.9863 94.6516 54.115 96.1071C53.2437 97.5527 51.9812 98.6617 50.3277 99.434C48.684 100.206 46.6938 100.592 44.357 100.592H36.322V95.4239H43.3174C44.5452 95.4239 45.565 95.2556 46.377 94.9189C47.1889 94.5822 47.7929 94.0773 48.1889 93.404C48.5949 92.7307 48.7979 91.894 48.7979 90.8939C48.7979 89.884 48.5949 89.0324 48.1889 88.3393C47.7929 87.6462 47.1839 87.1215 46.3621 86.765C45.5502 86.3986 44.5254 86.2155 43.2877 86.2155H38.9508V111.375H32.5198ZM48.9464 97.5329L56.5062 111.375H49.4068L42.0104 97.5329H48.9464Z" fill="url(#paint3_linear_502_89)"/>
<path d="M67.3008 111.375H60.4094L70.9099 80.9578H79.1975L89.6832 111.375H82.7918L75.1725 87.9086H74.9349L67.3008 111.375ZM66.8701 99.4191H83.1482V104.439H66.8701V99.4191Z" fill="url(#paint4_linear_502_89)"/>
<path d="M118.978 111.375V80.9578H139.474V86.26H125.409V93.5079H138.419V98.8102H125.409V106.073H139.533V111.375H118.978Z" fill="url(#paint5_linear_502_89)"/>
<path d="M152.708 80.9578L158.842 91.3246H159.08L165.243 80.9578H172.506L163.223 96.1665L172.714 111.375H165.318L159.08 100.993H158.842L152.604 111.375H145.237L154.758 96.1665L145.416 80.9578H152.708Z" fill="url(#paint6_linear_502_89)"/>
<path d="M94.4011 80.9873V111.375C94.4011 111.375 114.66 111.375 114.66 96.1812C114.66 80.9873 94.4011 80.9873 94.4011 80.9873Z" fill="url(#paint7_linear_502_89)"/>
<defs>
<linearGradient id="paint0_linear_502_89" x1="50.2898" y1="70.8118" x2="115.59" y2="27.3887" gradientUnits="userSpaceOnUse">
<stop stop-color="#5472F6"/>
<stop offset="1" stop-color="#DD3EF0"/>
</linearGradient>
<linearGradient id="paint1_linear_502_89" x1="73.8159" y1="35.4059" x2="120.904" y2="35.4059" gradientUnits="userSpaceOnUse">
<stop stop-color="#5472F6"/>
<stop offset="1" stop-color="#DD3EF0"/>
</linearGradient>
<linearGradient id="paint2_linear_502_89" x1="-6.4341e-07" y1="96.1665" x2="172.714" y2="96.1665" gradientUnits="userSpaceOnUse">
<stop stop-color="#5472F6"/>
<stop offset="1" stop-color="#DD3EF0"/>
</linearGradient>
<linearGradient id="paint3_linear_502_89" x1="-6.4341e-07" y1="96.1665" x2="172.714" y2="96.1665" gradientUnits="userSpaceOnUse">
<stop stop-color="#5472F6"/>
<stop offset="1" stop-color="#DD3EF0"/>
</linearGradient>
<linearGradient id="paint4_linear_502_89" x1="-6.4341e-07" y1="96.1665" x2="172.714" y2="96.1665" gradientUnits="userSpaceOnUse">
<stop stop-color="#5472F6"/>
<stop offset="1" stop-color="#DD3EF0"/>
</linearGradient>
<linearGradient id="paint5_linear_502_89" x1="-6.4341e-07" y1="96.1665" x2="172.714" y2="96.1665" gradientUnits="userSpaceOnUse">
<stop stop-color="#5472F6"/>
<stop offset="1" stop-color="#DD3EF0"/>
</linearGradient>
<linearGradient id="paint6_linear_502_89" x1="-6.4341e-07" y1="96.1665" x2="172.714" y2="96.1665" gradientUnits="userSpaceOnUse">
<stop stop-color="#5472F6"/>
<stop offset="1" stop-color="#DD3EF0"/>
</linearGradient>
<linearGradient id="paint7_linear_502_89" x1="94.4011" y1="96.1812" x2="114.66" y2="96.1812" gradientUnits="userSpaceOnUse">
<stop stop-color="#5472F6"/>
<stop offset="1" stop-color="#DD3EF0"/>
</linearGradient>
</defs>
</svg>
