<svg width="184" height="47" viewBox="0 0 184 47" fill="none" xmlns="http://www.w3.org/2000/svg">
<path opacity="0.75" d="M1.06178 0.00116255C0.46595 -0.0267865 0 0.452828 0 1.04931V45.7625C0 46.359 0.465951 46.8386 1.06178 46.8106C6.51594 46.5548 31.1286 44.2458 31.1286 23.4059C31.1286 2.56606 6.51594 0.257006 1.06178 0.00116255Z" fill="url(#paint0_linear_448_98)"/>
<path opacity="0.75" fill-rule="evenodd" clip-rule="evenodd" d="M2.16006 44.5788C5.39025 44.3341 11.5843 43.5234 17.2213 40.8726C23.5744 37.8849 28.9685 32.7221 28.9685 23.4059C28.9685 14.0897 23.5744 8.92688 17.2213 5.93924C11.5843 3.28836 5.39024 2.47766 2.16006 2.23306V44.5788ZM0 1.04931C0 0.452828 0.46595 -0.0267865 1.06178 0.00116255C6.51594 0.257006 31.1286 2.56606 31.1286 23.4059C31.1286 44.2458 6.51594 46.5548 1.06178 46.8106C0.465951 46.8386 0 46.359 0 45.7625V1.04931Z" fill="white"/>
<path opacity="0.75" d="M16.6143 0.00116255C16.0184 -0.0267865 15.5525 0.452828 15.5525 1.04931V45.7625C15.5525 46.359 16.0184 46.8386 16.6143 46.8106C22.0684 46.5548 46.6811 44.2458 46.6811 23.4059C46.6811 2.56606 22.0684 0.257006 16.6143 0.00116255Z" fill="url(#paint1_linear_448_98)"/>
<path opacity="0.75" fill-rule="evenodd" clip-rule="evenodd" d="M17.7125 44.5788C20.9427 44.3341 27.1368 43.5234 32.7738 40.8726C39.1269 37.8849 44.521 32.7221 44.521 23.4059C44.521 14.0897 39.1269 8.92688 32.7737 5.93924C27.1368 3.28836 20.9427 2.47766 17.7125 2.23306V44.5788ZM15.5525 1.04931C15.5525 0.452828 16.0184 -0.0267865 16.6143 0.00116255C22.0684 0.257006 46.6811 2.56606 46.6811 23.4059C46.6811 44.2458 22.0684 46.5548 16.6143 46.8106C16.0184 46.8386 15.5525 46.359 15.5525 45.7625V1.04931Z" fill="white"/>
<path d="M61.9094 34.6518H53.8438V11.8993H61.9761C64.2646 11.8993 66.2348 12.3548 67.8864 13.2658C69.538 14.1694 70.8082 15.4692 71.697 17.1653C72.5931 18.8613 73.0412 20.8907 73.0412 23.2533C73.0412 25.6234 72.5931 27.6601 71.697 29.3636C70.8082 31.0671 69.5306 32.3743 67.8642 33.2853C66.2051 34.1963 64.2202 34.6518 61.9094 34.6518ZM58.6543 30.5301H61.7094C63.1315 30.5301 64.3276 30.2783 65.2978 29.7747C66.2755 29.2636 67.0087 28.4748 67.4975 27.4083C67.9938 26.3344 68.2419 24.9494 68.2419 23.2533C68.2419 21.5721 67.9938 20.1982 67.4975 19.1317C67.0087 18.0652 66.2792 17.2801 65.309 16.7764C64.3387 16.2728 63.1426 16.021 61.7206 16.021H58.6543V30.5301Z" fill="url(#paint2_linear_448_98)"/>
<path d="M78.1689 34.6518V11.8993H87.1454C88.8637 11.8993 90.3302 12.2067 91.5448 12.8214C92.7669 13.4287 93.6964 14.2916 94.3333 15.41C94.9777 16.5209 95.2999 17.8281 95.2999 19.3316C95.2999 20.8426 94.974 22.1424 94.3222 23.2311C93.6705 24.3124 92.7262 25.142 91.4893 25.7197C90.2598 26.2974 88.7711 26.5862 87.0232 26.5862H81.0129V22.7201H86.2456C87.1639 22.7201 87.9268 22.5942 88.5341 22.3423C89.1415 22.0905 89.5932 21.7128 89.8895 21.2092C90.1932 20.7055 90.345 20.0797 90.345 19.3316C90.345 18.5762 90.1932 17.9392 89.8895 17.4208C89.5932 16.9023 89.1378 16.5098 88.523 16.2432C87.9157 15.9691 87.1491 15.8321 86.2233 15.8321H82.9793V34.6518H78.1689ZM90.4561 24.2976L96.1109 34.6518H90.8005L85.2679 24.2976H90.4561Z" fill="url(#paint3_linear_448_98)"/>
<path d="M104.185 34.6518H99.0305L106.885 11.8993H113.084L120.928 34.6518H115.773L110.073 17.0986H109.896L104.185 34.6518ZM103.863 25.7086H116.039V29.4636H103.863V25.7086Z" fill="url(#paint4_linear_448_98)"/>
<path d="M142.84 34.6518V11.8993H158.171V15.8655H147.651V21.2869H157.383V25.2531H147.651V30.6857H158.216V34.6518H142.84Z" fill="url(#paint5_linear_448_98)"/>
<path d="M168.071 11.8993L172.659 19.6538H172.837L177.447 11.8993H182.88L175.936 23.2756L183.035 34.6518H177.503L172.837 26.8862H172.659L167.993 34.6518H162.482L169.604 23.2756L162.616 11.8993H168.071Z" fill="url(#paint6_linear_448_98)"/>
<path d="M124.456 11.9214V34.6516C124.456 34.6516 139.61 34.6516 139.61 23.2865C139.61 11.9214 124.456 11.9214 124.456 11.9214Z" fill="url(#paint7_linear_448_98)"/>
<defs>
<linearGradient id="paint0_linear_448_98" x1="0" y1="46.8118" x2="43.1685" y2="18.1059" gradientUnits="userSpaceOnUse">
<stop stop-color="#5472F6"/>
<stop offset="1" stop-color="#DD3EF0"/>
</linearGradient>
<linearGradient id="paint1_linear_448_98" x1="15.5525" y1="23.4059" x2="46.6811" y2="23.4059" gradientUnits="userSpaceOnUse">
<stop stop-color="#5472F6"/>
<stop offset="1" stop-color="#DD3EF0"/>
</linearGradient>
<linearGradient id="paint2_linear_448_98" x1="53.8438" y1="23.2756" x2="183.035" y2="23.2756" gradientUnits="userSpaceOnUse">
<stop stop-color="#5472F6"/>
<stop offset="1" stop-color="#DD3EF0"/>
</linearGradient>
<linearGradient id="paint3_linear_448_98" x1="53.8438" y1="23.2756" x2="183.035" y2="23.2756" gradientUnits="userSpaceOnUse">
<stop stop-color="#5472F6"/>
<stop offset="1" stop-color="#DD3EF0"/>
</linearGradient>
<linearGradient id="paint4_linear_448_98" x1="53.8438" y1="23.2756" x2="183.035" y2="23.2756" gradientUnits="userSpaceOnUse">
<stop stop-color="#5472F6"/>
<stop offset="1" stop-color="#DD3EF0"/>
</linearGradient>
<linearGradient id="paint5_linear_448_98" x1="53.8438" y1="23.2756" x2="183.035" y2="23.2756" gradientUnits="userSpaceOnUse">
<stop stop-color="#5472F6"/>
<stop offset="1" stop-color="#DD3EF0"/>
</linearGradient>
<linearGradient id="paint6_linear_448_98" x1="53.8438" y1="23.2756" x2="183.035" y2="23.2756" gradientUnits="userSpaceOnUse">
<stop stop-color="#5472F6"/>
<stop offset="1" stop-color="#DD3EF0"/>
</linearGradient>
<linearGradient id="paint7_linear_448_98" x1="124.456" y1="23.2865" x2="139.61" y2="23.2865" gradientUnits="userSpaceOnUse">
<stop stop-color="#5472F6"/>
<stop offset="1" stop-color="#DD3EF0"/>
</linearGradient>
</defs>
</svg>
