<svg width="76" height="76" viewBox="0 0 76 76" fill="none" xmlns="http://www.w3.org/2000/svg">
<path fill-rule="evenodd" clip-rule="evenodd" d="M22.1667 17.3333C19.2051 17.3333 16.3648 18.5098 14.2706 20.604C12.1765 22.6981 11 25.5384 11 28.5V39.6667H33.3333V28.5C33.3333 25.5384 32.1568 22.6981 30.0627 20.604C27.9685 18.5098 25.1283 17.3333 22.1667 17.3333ZM33.3333 42.6667V60.1667C33.3333 60.9951 34.0049 61.6667 34.8333 61.6667C35.6618 61.6667 36.3333 60.9951 36.3333 60.1667V41.1667V28.5C36.3333 24.7428 34.8408 21.1394 32.184 18.4827C29.5272 15.8259 25.9239 14.3333 22.1667 14.3333C18.4094 14.3333 14.8061 15.8259 12.1493 18.4827C9.49255 21.1394 8 24.7428 8 28.5V41.1667V60.1667C8 60.9951 8.67157 61.6667 9.5 61.6667C10.3284 61.6667 11 60.9951 11 60.1667V42.6667H33.3333ZM49 50.6667C49 46.2484 52.5817 42.6667 57 42.6667C61.4183 42.6667 65 46.2484 65 50.6667C65 55.0849 61.4183 58.6667 57 58.6667C52.5817 58.6667 49 55.0849 49 50.6667ZM65 43.1168C62.9945 40.9924 60.1521 39.6667 57 39.6667C50.9249 39.6667 46 44.5915 46 50.6667C46 56.7418 50.9249 61.6667 57 61.6667C60.1521 61.6667 62.9945 60.3409 65 58.2165V60.1667C65 60.9951 65.6716 61.6667 66.5 61.6667C67.3284 61.6667 68 60.9951 68 60.1667V50.6667V41.1667C68 40.3382 67.3284 39.6667 66.5 39.6667C65.6716 39.6667 65 40.3382 65 41.1667V43.1168Z" fill="url(#paint0_linear_10_150)"/>
<defs>
<linearGradient id="paint0_linear_10_150" x1="8" y1="38" x2="68" y2="38" gradientUnits="userSpaceOnUse">
<stop stop-color="#5472F6"/>
<stop offset="1" stop-color="#DD3EF0"/>
</linearGradient>
</defs>
</svg>
