<svg width="76" height="76" viewBox="0 0 76 76" fill="none" xmlns="http://www.w3.org/2000/svg">
<path d="M57 60.1667C62.2467 60.1667 66.5 55.9134 66.5 50.6667C66.5 45.42 62.2467 41.1667 57 41.1667C51.7533 41.1667 47.5 45.42 47.5 50.6667C47.5 55.9134 51.7533 60.1667 57 60.1667Z" stroke="white" stroke-width="1.58333" stroke-linecap="round" stroke-linejoin="round"/>
<path d="M66.5 41.1667V60.1667" stroke="white" stroke-width="1.58333" stroke-linecap="round" stroke-linejoin="round"/>
<path d="M9.5 60.1667V28.5C9.5 25.1406 10.8345 21.9188 13.21 19.5433C15.5854 17.1679 18.8073 15.8333 22.1667 15.8333C25.5261 15.8333 28.7479 17.1679 31.1234 19.5433C33.4988 21.9188 34.8333 25.1406 34.8333 28.5V60.1667" stroke="white" stroke-width="1.58333" stroke-linecap="round" stroke-linejoin="round"/>
<path d="M9.5 41.1667H34.8333" stroke="white" stroke-width="1.58333" stroke-linecap="round" stroke-linejoin="round"/>
</svg>
