<svg width="76" height="76" viewBox="0 0 76 76" fill="none" xmlns="http://www.w3.org/2000/svg">
<path d="M40.5745 53.1811L54.036 57.2186M18.7815 21.9641L22.819 35.4193L18.7815 21.9641Z" stroke="white" stroke-width="1.58333" stroke-linecap="round" stroke-linejoin="round"/>
<path d="M36.9962 39.0039L55.233 20.7671" stroke="white" stroke-width="1.58333" stroke-linecap="round" stroke-linejoin="round"/>
<path d="M17.4167 22.1667C20.04 22.1667 22.1667 20.0401 22.1667 17.4167C22.1667 14.7934 20.04 12.6667 17.4167 12.6667C14.7933 12.6667 12.6667 14.7934 12.6667 17.4167C12.6667 20.0401 14.7933 22.1667 17.4167 22.1667Z" stroke="white" stroke-width="1.58333" stroke-linecap="round" stroke-linejoin="round"/>
<path d="M58.5833 22.1667C61.2067 22.1667 63.3333 20.0401 63.3333 17.4167C63.3333 14.7934 61.2067 12.6667 58.5833 12.6667C55.96 12.6667 53.8333 14.7934 53.8333 17.4167C53.8333 20.0401 55.96 22.1667 58.5833 22.1667Z" stroke="white" stroke-width="1.58333" stroke-linecap="round" stroke-linejoin="round"/>
<path d="M58.5833 63.3333C61.2067 63.3333 63.3333 61.2066 63.3333 58.5833C63.3333 55.9599 61.2067 53.8333 58.5833 53.8333C55.96 53.8333 53.8333 55.9599 53.8333 58.5833C53.8333 61.2066 55.96 63.3333 58.5833 63.3333Z" stroke="white" stroke-width="1.58333" stroke-linecap="round" stroke-linejoin="round"/>
<path d="M26.9167 63.3333C34.7867 63.3333 41.1667 56.9533 41.1667 49.0833C41.1667 41.2132 34.7867 34.8333 26.9167 34.8333C19.0466 34.8333 12.6667 41.2132 12.6667 49.0833C12.6667 56.9533 19.0466 63.3333 26.9167 63.3333Z" stroke="white" stroke-width="1.58333" stroke-linecap="round" stroke-linejoin="round"/>
</svg>
