<svg width="76" height="76" viewBox="0 0 76 76" fill="none" xmlns="http://www.w3.org/2000/svg">
<path fill-rule="evenodd" clip-rule="evenodd" d="M32.7274 8.43934C32.1416 7.85355 31.1918 7.85355 30.606 8.43934C30.0203 9.02513 30.0203 9.97487 30.606 10.5607L37.5454 17.5H31.6667C27.0696 17.5 22.6608 19.3262 19.4102 22.5768C16.1596 25.8274 14.3334 30.2362 14.3334 34.8333V49.3101C10.7247 50.0099 8 53.1868 8 57C8 61.3262 11.5071 64.8333 15.8333 64.8333C20.1596 64.8333 23.6667 61.3262 23.6667 57C23.6667 53.1868 20.942 50.01 17.3334 49.3101V34.8333C17.3334 31.0319 18.8435 27.3862 21.5315 24.6981C24.2195 22.0101 27.8653 20.5 31.6667 20.5H37.5454L30.606 27.4393C30.0203 28.0251 30.0203 28.9749 30.606 29.5607C31.1918 30.1464 32.1416 30.1464 32.7274 29.5607L42.2274 20.0607C42.8132 19.4749 42.8132 18.5251 42.2274 17.9393L32.7274 8.43934ZM55.3334 19C55.3334 16.3306 57.4973 14.1667 60.1667 14.1667C62.8361 14.1667 65 16.3306 65 19C65 21.6694 62.8361 23.8333 60.1667 23.8333C57.4973 23.8333 55.3334 21.6694 55.3334 19ZM60.1667 11.1667C55.8405 11.1667 52.3334 14.6738 52.3334 19C52.3334 22.8132 55.058 25.99 58.6667 26.6899V41.1667C58.6667 44.9681 57.1566 48.6139 54.4686 51.3019C51.7805 53.9899 48.1348 55.5 44.3334 55.5H38.4547L45.394 48.5607C45.9798 47.9749 45.9798 47.0251 45.394 46.4394C44.8082 45.8536 43.8585 45.8536 43.2727 46.4394L33.7727 55.9394C33.1869 56.5251 33.1869 57.4749 33.7727 58.0607L43.2727 67.5607C43.8585 68.1465 44.8082 68.1465 45.394 67.5607C45.9798 66.9749 45.9798 66.0251 45.394 65.4394L38.4547 58.5H44.3334C48.9305 58.5 53.3393 56.6738 56.5899 53.4232C59.8405 50.1726 61.6667 45.7638 61.6667 41.1667V26.6899C65.2754 25.99 68 22.8132 68 19C68 14.6738 64.4929 11.1667 60.1667 11.1667Z" fill="url(#paint0_linear_10_169)"/>
<defs>
<linearGradient id="paint0_linear_10_169" x1="8" y1="38" x2="68" y2="38" gradientUnits="userSpaceOnUse">
<stop stop-color="#5472F6"/>
<stop offset="1" stop-color="#DD3EF0"/>
</linearGradient>
</defs>
</svg>
