<svg width="76" height="76" viewBox="0 0 76 76" fill="none" xmlns="http://www.w3.org/2000/svg">
<g clip-path="url(#clip0_63_144)">
<path d="M15.8333 63.3334C19.3312 63.3334 22.1667 60.4978 22.1667 57C22.1667 53.5022 19.3312 50.6667 15.8333 50.6667C12.3355 50.6667 9.50002 53.5022 9.50002 57C9.50002 60.4978 12.3355 63.3334 15.8333 63.3334Z" stroke="white" stroke-width="1.58333" stroke-linecap="round" stroke-linejoin="round"/>
<path d="M60.1667 25.3333C63.6645 25.3333 66.5 22.4978 66.5 19C66.5 15.5022 63.6645 12.6667 60.1667 12.6667C56.6689 12.6667 53.8333 15.5022 53.8333 19C53.8333 22.4978 56.6689 25.3333 60.1667 25.3333Z" stroke="white" stroke-width="1.58333" stroke-linecap="round" stroke-linejoin="round"/>
<path d="M60.1667 25.3333V41.1666C60.1667 45.3659 58.4985 49.3932 55.5292 52.3625C52.5599 55.3318 48.5326 57 44.3333 57H34.8333M34.8333 57L44.3333 47.5M34.8333 57L44.3333 66.5" stroke="white" stroke-width="1.58333" stroke-linecap="round" stroke-linejoin="round"/>
<path d="M15.8333 50.6667V34.8333C15.8333 30.6341 17.5015 26.6068 20.4708 23.6375C23.4401 20.6681 27.4674 19 31.6667 19H41.1667M41.1667 19L31.6667 9.5M41.1667 19L31.6667 28.5" stroke="white" stroke-width="1.58333" stroke-linecap="round" stroke-linejoin="round"/>
</g>
<defs>
<clipPath id="clip0_63_144">
<rect width="76" height="76" fill="white"/>
</clipPath>
</defs>
</svg>
