<svg width="76" height="76" viewBox="0 0 76 76" fill="none" xmlns="http://www.w3.org/2000/svg">
<path d="M38 28.5H15.8333C14.1536 28.5 12.5427 29.1673 11.355 30.355C10.1673 31.5427 9.5 33.1536 9.5 34.8333V47.5C9.5 49.1797 10.1673 50.7906 11.355 51.9783C12.5427 53.1661 14.1536 53.8333 15.8333 53.8333H25.3333" stroke="white" stroke-width="1.58333" stroke-linecap="round" stroke-linejoin="round"/>
<path d="M38 47.5001H60.1667C61.8464 47.5001 63.4573 46.8328 64.645 45.6451C65.8327 44.4574 66.5 42.8465 66.5 41.1667V28.5001C66.5 26.8204 65.8327 25.2095 64.645 24.0217C63.4573 22.834 61.8464 22.1667 60.1667 22.1667H50.6667" stroke="white" stroke-width="1.58333" stroke-linecap="round" stroke-linejoin="round"/>
<path d="M25.3333 28.5V15.8333C25.3333 14.1536 26.0006 12.5427 27.1883 11.355C28.3761 10.1673 29.987 9.5 31.6667 9.5H44.3333C46.013 9.5 47.6239 10.1673 48.8117 11.355C49.9994 12.5427 50.6667 14.1536 50.6667 15.8333V31.6667C50.6667 33.3464 49.9994 34.9573 48.8117 36.145C47.6239 37.3327 46.013 38 44.3333 38H31.6667C29.987 38 28.3761 38.6673 27.1883 39.855C26.0006 41.0427 25.3333 42.6536 25.3333 44.3333V60.1667C25.3333 61.8464 26.0006 63.4573 27.1883 64.645C28.3761 65.8327 29.987 66.5 31.6667 66.5H44.3333C46.013 66.5 47.6239 65.8327 48.8117 64.645C49.9994 63.4573 50.6667 61.8464 50.6667 60.1667V47.5" stroke="white" stroke-width="1.58333" stroke-linecap="round" stroke-linejoin="round"/>
<path d="M34.8333 19V19.0317" stroke="white" stroke-width="1.58333" stroke-linecap="round" stroke-linejoin="round"/>
<path d="M41.1667 57V57.0317" stroke="white" stroke-width="1.58333" stroke-linecap="round" stroke-linejoin="round"/>
</svg>
