<svg width="48" height="49" viewBox="0 0 48 49" fill="none" xmlns="http://www.w3.org/2000/svg">
<path d="M0.5 10C0.5 4.7533 4.75329 0.5 10 0.5H48.5V48.5H10C4.7533 48.5 0.5 44.2467 0.5 39V10Z" fill="url(#paint0_linear_63_342)"/>
<path fill-rule="evenodd" clip-rule="evenodd" d="M20.75 24.1875C20.5774 24.1875 20.4375 24.3274 20.4375 24.5C20.4375 24.6726 20.5774 24.8125 20.75 24.8125C20.9226 24.8125 21.0625 24.6726 21.0625 24.5C21.0625 24.3274 20.9226 24.1875 20.75 24.1875ZM18.5625 24.5C18.5625 23.2919 19.5419 22.3125 20.75 22.3125C21.9581 22.3125 22.9375 23.2919 22.9375 24.5C22.9375 25.7081 21.9581 26.6875 20.75 26.6875C19.5419 26.6875 18.5625 25.7081 18.5625 24.5Z" fill="white"/>
<path fill-rule="evenodd" clip-rule="evenodd" d="M28.25 24.1875C28.0774 24.1875 27.9375 24.3274 27.9375 24.5C27.9375 24.6726 28.0774 24.8125 28.25 24.8125C28.4226 24.8125 28.5625 24.6726 28.5625 24.5C28.5625 24.3274 28.4226 24.1875 28.25 24.1875ZM26.0625 24.5C26.0625 23.2919 27.0419 22.3125 28.25 22.3125C29.4581 22.3125 30.4375 23.2919 30.4375 24.5C30.4375 25.7081 29.4581 26.6875 28.25 26.6875C27.0419 26.6875 26.0625 25.7081 26.0625 24.5Z" fill="white"/>
<path fill-rule="evenodd" clip-rule="evenodd" d="M24.5 18.875C22.9016 18.875 21.2758 19.1641 19.1325 19.7764C18.6347 19.9187 18.1158 19.6304 17.9736 19.1326C17.8313 18.6347 18.1196 18.1158 18.6174 17.9736C20.8492 17.3359 22.6609 17 24.5 17C26.3391 17 28.1508 17.3359 30.3825 17.9736C30.8804 18.1158 31.1687 18.6347 31.0264 19.1326C30.8842 19.6304 30.3653 19.9187 29.8674 19.7764C27.7242 19.1641 26.0984 18.875 24.5 18.875Z" fill="white"/>
<path fill-rule="evenodd" clip-rule="evenodd" d="M17.3486 29.8674C17.4908 29.3696 18.0097 29.0813 18.5075 29.2236C22.7142 30.4255 26.2858 30.4255 30.4924 29.2236C30.9903 29.0813 31.5092 29.3696 31.6514 29.8674C31.7937 30.3653 31.5054 30.8842 31.0075 31.0264C26.4642 32.3245 22.5358 32.3245 17.9924 31.0264C17.4946 30.8842 17.2063 30.3653 17.3486 29.8674Z" fill="white"/>
<path fill-rule="evenodd" clip-rule="evenodd" d="M27.3796 14.1518C27.5355 13.7619 27.9318 13.5232 28.3494 13.5678C30.2889 13.7747 32.4009 14.2055 34.4109 15.6058C34.572 15.718 34.6937 15.8779 34.7591 16.063C36.0294 19.6624 36.7255 22.8069 36.9949 25.3383C37.2604 27.8331 37.1234 29.8412 36.6204 31.0983C36.6107 31.1225 36.6001 31.1462 36.5884 31.1695C36.1358 32.0741 35.4526 33.105 34.6042 33.9242C33.7697 34.7301 32.6618 35.4375 31.375 35.4375C31.0232 35.4375 30.738 35.2787 30.5843 35.1807C30.4023 35.0648 30.2281 34.917 30.0704 34.7651C29.7524 34.4589 29.421 34.0576 29.1226 33.6314C28.8231 33.2035 28.5378 32.7232 28.3236 32.2497C28.119 31.7975 27.9375 31.2617 27.9375 30.75C27.9375 30.2322 28.3572 29.8125 28.875 29.8125C29.3928 29.8125 29.8125 30.2322 29.8125 30.75C29.8125 30.8634 29.8654 31.1087 30.0319 31.4769C30.1888 31.8237 30.4113 32.2028 30.6587 32.5561C30.9072 32.9112 31.1617 33.213 31.371 33.4145C31.436 33.4772 31.4893 33.523 31.5301 33.5549C32.0786 33.5019 32.6847 33.1713 33.3017 32.5755C33.9531 31.9465 34.5123 31.1191 34.8932 30.3671C35.2151 29.5297 35.3824 27.9044 35.1304 25.5367C34.8859 23.2388 34.2573 20.3392 33.0931 16.979C31.7451 16.1073 30.3227 15.7246 28.8524 15.5182L27.8705 17.9732C27.6782 18.4539 27.1326 18.6877 26.6518 18.4954C26.1711 18.3032 25.9373 17.7576 26.1296 17.2768L27.3796 14.1518ZM31.6148 33.6125C31.6149 33.6128 31.6104 33.6108 31.6009 33.6051C31.61 33.6092 31.6147 33.6121 31.6148 33.6125Z" fill="white"/>
<path fill-rule="evenodd" clip-rule="evenodd" d="M20.6475 13.5681C21.0661 13.5221 21.464 13.7608 21.6204 14.1518L22.8704 17.2768C23.0627 17.7576 22.8289 18.3032 22.3481 18.4955C21.8674 18.6877 21.3218 18.4539 21.1295 17.9732L20.1491 15.5221C18.776 15.7269 17.505 16.1052 16.246 16.963C15.1365 20.3263 14.537 23.2297 14.3038 25.532C14.0635 27.9036 14.2224 29.5375 14.5322 30.3825C14.8957 31.1367 15.4285 31.9642 16.0472 32.5916C16.6203 33.1728 17.1704 33.4876 17.6553 33.5506C17.6857 33.5232 17.7227 33.4875 17.7659 33.4422C17.9551 33.2442 18.1862 32.9448 18.4126 32.5897C18.6374 32.2371 18.8401 31.857 18.9834 31.5076C19.1344 31.1395 19.1875 30.8821 19.1875 30.75C19.1875 30.2322 19.6072 29.8125 20.125 29.8125C20.6427 29.8125 21.0625 30.2322 21.0625 30.75C21.0625 31.2429 20.9037 31.7667 20.7182 32.219C20.5251 32.6898 20.2669 33.1691 19.9936 33.5978C19.7218 34.024 19.4176 34.4277 19.1217 34.7375C18.9751 34.8908 18.8102 35.0428 18.6342 35.1634C18.4874 35.2641 18.2 35.4375 17.835 35.4375C16.5754 35.4375 15.505 34.7122 14.7121 33.9081C13.9024 33.087 13.2523 32.0557 12.8223 31.1532C12.8115 31.1304 12.8016 31.1073 12.7926 31.0837C12.3169 29.8348 12.1859 27.835 12.4383 25.343C12.6944 22.8155 13.3563 19.6739 14.565 16.0764C14.6268 15.8927 14.7439 15.7327 14.9003 15.6183C16.8209 14.2138 18.7469 13.7771 20.6475 13.5681ZM17.5575 33.627C17.5576 33.6266 17.5624 33.6234 17.5717 33.6186C17.562 33.625 17.5574 33.6275 17.5575 33.627Z" fill="white"/>
<path d="M0.5 10C0.5 4.7533 4.75329 0.5 10 0.5H48.5V48.5H10C4.7533 48.5 0.5 44.2467 0.5 39V10Z" stroke="url(#paint1_linear_63_342)"/>
<defs>
<linearGradient id="paint0_linear_63_342" x1="0" y1="49" x2="49" y2="0" gradientUnits="userSpaceOnUse">
<stop stop-color="#5472F6" stop-opacity="0.1"/>
<stop offset="1" stop-color="#DD3EF0" stop-opacity="0.1"/>
</linearGradient>
<linearGradient id="paint1_linear_63_342" x1="-1.82539e-07" y1="24.5" x2="49" y2="24.5" gradientUnits="userSpaceOnUse">
<stop stop-color="#5472F6"/>
<stop offset="1" stop-color="#DD3EF0"/>
</linearGradient>
</defs>
</svg>
