<svg width="76" height="76" viewBox="0 0 76 76" fill="none" xmlns="http://www.w3.org/2000/svg">
<path d="M28.5 41.1666C30.2489 41.1666 31.6666 39.7489 31.6666 38C31.6666 36.2511 30.2489 34.8333 28.5 34.8333C26.7511 34.8333 25.3333 36.2511 25.3333 38C25.3333 39.7489 26.7511 41.1666 28.5 41.1666Z" stroke="white" stroke-width="1.58333" stroke-linecap="round" stroke-linejoin="round"/>
<path d="M47.5 41.1666C49.2489 41.1666 50.6666 39.7489 50.6666 38C50.6666 36.2511 49.2489 34.8333 47.5 34.8333C45.7511 34.8333 44.3333 36.2511 44.3333 38C44.3333 39.7489 45.7511 41.1666 47.5 41.1666Z" stroke="white" stroke-width="1.58333" stroke-linecap="round" stroke-linejoin="round"/>
<path d="M23.75 23.75C34.8333 20.5833 41.1667 20.5833 52.25 23.75" stroke="white" stroke-width="1.58333" stroke-linecap="round" stroke-linejoin="round"/>
<path d="M22.1667 52.25C33.25 55.4167 42.75 55.4167 53.8334 52.25" stroke="white" stroke-width="1.58333" stroke-linecap="round" stroke-linejoin="round"/>
<path d="M49.0833 53.8333C49.0833 57 53.8333 63.3333 55.4166 63.3333C60.1666 63.3333 64.3878 58.0545 66.5 53.8333C68.6121 48.5545 68.0833 35.3622 61.75 17.4167C57.1361 14.2025 52.25 13.1733 47.5 12.6667L44.3333 20.5833" stroke="white" stroke-width="1.58333" stroke-linecap="round" stroke-linejoin="round"/>
<path d="M26.9167 53.8333C26.9167 57 22.6227 63.3333 21.1153 63.3333C16.5902 63.3333 12.5717 58.0545 10.5608 53.8333C8.54999 48.5545 9.05349 35.3622 15.0828 17.4167C19.4782 14.2025 23.8925 13.1733 28.5 12.6667L31.6667 20.5833" stroke="white" stroke-width="1.58333" stroke-linecap="round" stroke-linejoin="round"/>
</svg>
