<svg width="31" height="31" viewBox="0 0 31 31" fill="none" xmlns="http://www.w3.org/2000/svg">
<path fill-rule="evenodd" clip-rule="evenodd" d="M11.75 15.1875C11.5774 15.1875 11.4375 15.3274 11.4375 15.5C11.4375 15.6726 11.5774 15.8125 11.75 15.8125C11.9226 15.8125 12.0625 15.6726 12.0625 15.5C12.0625 15.3274 11.9226 15.1875 11.75 15.1875ZM9.5625 15.5C9.5625 14.2919 10.5419 13.3125 11.75 13.3125C12.9581 13.3125 13.9375 14.2919 13.9375 15.5C13.9375 16.7081 12.9581 17.6875 11.75 17.6875C10.5419 17.6875 9.5625 16.7081 9.5625 15.5Z" fill="white"/>
<path fill-rule="evenodd" clip-rule="evenodd" d="M19.25 15.1875C19.0774 15.1875 18.9375 15.3274 18.9375 15.5C18.9375 15.6726 19.0774 15.8125 19.25 15.8125C19.4226 15.8125 19.5625 15.6726 19.5625 15.5C19.5625 15.3274 19.4226 15.1875 19.25 15.1875ZM17.0625 15.5C17.0625 14.2919 18.0419 13.3125 19.25 13.3125C20.4581 13.3125 21.4375 14.2919 21.4375 15.5C21.4375 16.7081 20.4581 17.6875 19.25 17.6875C18.0419 17.6875 17.0625 16.7081 17.0625 15.5Z" fill="white"/>
<path fill-rule="evenodd" clip-rule="evenodd" d="M15.5 9.875C13.9016 9.875 12.2758 10.1641 10.1325 10.7764C9.6347 10.9187 9.11581 10.6304 8.97357 10.1326C8.83133 9.63471 9.1196 9.11581 9.61745 8.97357C11.8492 8.33592 13.6609 8 15.5 8C17.3391 8 19.1508 8.33592 21.3825 8.97357C21.8804 9.11581 22.1687 9.63471 22.0264 10.1326C21.8842 10.6304 21.3653 10.9187 20.8674 10.7764C18.7242 10.1641 17.0984 9.875 15.5 9.875Z" fill="white"/>
<path fill-rule="evenodd" clip-rule="evenodd" d="M8.34857 20.8674C8.49081 20.3696 9.0097 20.0813 9.50755 20.2236C13.7142 21.4255 17.2858 21.4255 21.4924 20.2236C21.9903 20.0813 22.5092 20.3696 22.6514 20.8674C22.7937 21.3653 22.5054 21.8842 22.0075 22.0264C17.4642 23.3245 13.5358 23.3245 8.99245 22.0264C8.4946 21.8842 8.20633 21.3653 8.34857 20.8674Z" fill="white"/>
<path fill-rule="evenodd" clip-rule="evenodd" d="M18.3796 5.15182C18.5355 4.76188 18.9318 4.52325 19.3494 4.56779C21.2889 4.77467 23.4009 5.2055 25.4109 6.60576C25.572 6.71796 25.6937 6.87789 25.7591 7.063C27.0294 10.6624 27.7255 13.8069 27.9949 16.3383C28.2604 18.8331 28.1234 20.8412 27.6204 22.0983C27.6107 22.1225 27.6001 22.1462 27.5884 22.1695C27.1358 23.0741 26.4526 24.105 25.6042 24.9242C24.7697 25.7301 23.6618 26.4375 22.375 26.4375C22.0232 26.4375 21.738 26.2787 21.5843 26.1807C21.4023 26.0648 21.2281 25.917 21.0704 25.7651C20.7524 25.4589 20.421 25.0576 20.1226 24.6314C19.8231 24.2035 19.5378 23.7232 19.3236 23.2497C19.119 22.7975 18.9375 22.2617 18.9375 21.75C18.9375 21.2322 19.3572 20.8125 19.875 20.8125C20.3928 20.8125 20.8125 21.2322 20.8125 21.75C20.8125 21.8634 20.8654 22.1087 21.0319 22.4769C21.1888 22.8237 21.4113 23.2028 21.6587 23.5561C21.9072 23.9112 22.1617 24.213 22.371 24.4145C22.436 24.4772 22.4893 24.523 22.5301 24.5549C23.0786 24.5019 23.6847 24.1713 24.3017 23.5755C24.9531 22.9465 25.5123 22.1191 25.8932 21.3671C26.2151 20.5297 26.3824 18.9044 26.1304 16.5367C25.8859 14.2388 25.2573 11.3392 24.0931 7.97904C22.7451 7.10728 21.3227 6.72459 19.8524 6.51822L18.8705 8.97318C18.6782 9.45392 18.1326 9.68774 17.6518 9.49545C17.1711 9.30316 16.9373 8.75756 17.1296 8.27682L18.3796 5.15182ZM22.6148 24.6125C22.6149 24.6128 22.6104 24.6108 22.6009 24.6051C22.61 24.6092 22.6147 24.6121 22.6148 24.6125Z" fill="white"/>
<path fill-rule="evenodd" clip-rule="evenodd" d="M11.6475 4.56812C12.0661 4.52209 12.464 4.76083 12.6204 5.15183L13.8704 8.27683C14.0627 8.75756 13.8289 9.30316 13.3481 9.49545C12.8674 9.68775 12.3218 9.45392 12.1295 8.97318L11.1491 6.52213C9.77604 6.72693 8.50501 7.10516 7.24603 7.96302C6.13652 11.3263 5.53701 14.2297 5.30378 16.532C5.06354 18.9036 5.22245 20.5375 5.53217 21.3825C5.8957 22.1367 6.42851 22.9642 7.04719 23.5916C7.62035 24.1728 8.17038 24.4876 8.65527 24.5506C8.68566 24.5232 8.72265 24.4875 8.76593 24.4422C8.95515 24.2442 9.18623 23.9448 9.4126 23.5897C9.63743 23.2371 9.84011 22.857 9.98343 22.5076C10.1344 22.1395 10.1875 21.8821 10.1875 21.75C10.1875 21.2322 10.6072 20.8125 11.125 20.8125C11.6427 20.8125 12.0625 21.2322 12.0625 21.75C12.0625 22.2429 11.9037 22.7667 11.7182 23.219C11.5251 23.6898 11.2669 24.1691 10.9936 24.5978C10.7218 25.024 10.4176 25.4277 10.1217 25.7375C9.97514 25.8908 9.81018 26.0428 9.63423 26.1634C9.48742 26.2641 9.20001 26.4375 8.83496 26.4375C7.57537 26.4375 6.50503 25.7122 5.7121 24.9081C4.90243 24.087 4.25228 23.0557 3.82234 22.1532C3.8115 22.1304 3.80159 22.1073 3.79262 22.0837C3.31686 20.8348 3.18588 18.835 3.43833 16.343C3.69437 13.8155 4.35634 10.6739 5.56503 7.07642C5.62675 6.89272 5.74389 6.73265 5.90032 6.61826C7.8209 5.2138 9.74686 4.77713 11.6475 4.56812ZM8.55749 24.627C8.55758 24.6266 8.5624 24.6234 8.57166 24.6186C8.56202 24.625 8.5574 24.6275 8.55749 24.627Z" fill="white"/>
</svg>
