<svg width="76" height="76" viewBox="0 0 76 76" fill="none" xmlns="http://www.w3.org/2000/svg">
<path fill-rule="evenodd" clip-rule="evenodd" d="M29.8927 12.1096C29.6424 11.484 29.0058 11.102 28.336 11.1756C23.5975 11.6967 18.8896 12.7746 14.1974 16.2059C13.9471 16.3889 13.7597 16.645 13.6609 16.9389C10.6163 26.0007 8.95549 33.8951 8.31438 40.2238C7.67902 46.4957 8.02742 51.3965 9.15906 54.3673C9.17341 54.4049 9.18927 54.442 9.2066 54.4784C10.2649 56.7001 11.8605 59.2251 13.8271 61.2195C15.7669 63.1867 18.2664 64.8333 21.1153 64.8333C21.7688 64.8333 22.3141 64.5193 22.6454 64.2922C23.0233 64.0332 23.3946 63.6943 23.7422 63.3304C24.4421 62.5979 25.1787 61.6238 25.846 60.5772C26.5157 59.5269 27.144 58.3589 27.61 57.2228C27.8759 56.5743 28.1072 55.8927 28.2531 55.2221C34.8734 56.4267 41.1389 56.426 47.7596 55.2198C47.9231 55.9128 48.1855 56.6129 48.4836 57.2719C48.9995 58.4123 49.6929 59.5818 50.4274 60.631C51.16 61.6776 51.9637 62.6478 52.7187 63.3748C53.094 63.7362 53.489 64.0683 53.8837 64.3199C54.2333 64.5428 54.7809 64.8333 55.4167 64.8333C58.3506 64.8333 60.9494 63.2153 62.9895 61.2453C65.0517 59.2539 66.7282 56.7295 67.8415 54.5046C67.8601 54.4673 67.8772 54.4293 67.8927 54.3906C69.0865 51.4069 69.4515 46.4926 68.7837 40.2163C68.1096 33.8814 66.3636 25.9822 63.1645 16.9175C63.06 16.6213 62.8651 16.3654 62.6074 16.1859C57.6915 12.7613 52.5122 11.6928 47.6591 11.1751C46.9909 11.1039 46.3569 11.4857 46.1073 12.1096L42.9406 20.0263C42.9193 20.0795 42.9013 20.1332 42.8865 20.1872C41.2286 19.9799 39.6171 19.875 38 19.875C36.3829 19.875 34.7714 19.9799 33.1135 20.1872C33.0987 20.1332 33.0806 20.0795 33.0594 20.0262L29.8927 12.1096ZM30.0847 20.6673L27.5354 14.294C23.6281 14.812 19.977 15.8128 16.3514 18.3531C13.4648 27.0425 11.9038 34.5574 11.2991 40.5262C10.683 46.6081 11.077 50.9227 11.9418 53.2443C12.894 55.2292 14.3023 57.4286 15.9632 59.1131C17.6047 60.7777 19.3102 61.7601 20.932 61.8294L20.9493 61.8178C21.0947 61.7181 21.3062 61.5374 21.5731 61.2581C22.1022 60.7042 22.7218 59.897 23.3164 58.9644C23.9086 58.0356 24.448 57.0265 24.8343 56.0845C25.0639 55.5246 25.2222 55.0296 25.3152 54.6143C24.1435 54.3434 22.9578 54.0361 21.7546 53.6923C20.958 53.4647 20.4968 52.6345 20.7244 51.8379C20.9519 51.0414 21.7822 50.5801 22.5787 50.8077C33.3927 53.8974 42.6072 53.8974 53.4212 50.8077C54.2178 50.5801 55.048 51.0414 55.2756 51.8379C55.5032 52.6345 55.0419 53.4647 54.2454 53.6923C53.047 54.0347 51.8661 54.3409 50.6989 54.611C50.7999 55.0096 50.9695 55.4885 51.2169 56.0354C51.6411 56.9731 52.2342 57.9807 52.8851 58.9107C53.5379 59.8433 54.2186 60.6544 54.7996 61.2138C55.0922 61.4956 55.3281 61.683 55.4962 61.7901C55.5099 61.7989 55.5225 61.8066 55.534 61.8136C55.5401 61.8172 55.5458 61.8206 55.5513 61.8238C55.5558 61.8264 55.56 61.8288 55.5641 61.8311C57.3346 61.7776 59.1678 60.7654 60.9056 59.0873C62.6526 57.4003 64.1311 55.201 65.1297 53.2196C66.0326 50.9104 66.447 46.6097 65.8005 40.5337C65.1661 34.572 63.5281 27.0632 60.4979 18.3786C56.6509 15.8169 52.5873 14.8092 48.4667 14.2889L45.9153 20.6672C48.0191 21.0665 50.237 21.6148 52.6621 22.3077C53.4587 22.5353 53.9199 23.3655 53.6923 24.1621C53.4647 24.9586 52.6345 25.4199 51.8379 25.1923C46.3671 23.6292 42.1616 22.875 38 22.875C33.8384 22.875 29.6329 23.6292 24.1621 25.1923C23.3655 25.4199 22.5353 24.9586 22.3077 24.1621C22.0801 23.3655 22.5414 22.5353 23.3379 22.3077C25.763 21.6148 27.9809 21.0665 30.0847 20.6673ZM20.8469 61.8792C20.8453 61.8799 20.8445 61.8804 20.8445 61.8805C20.8444 61.8809 20.8489 61.8791 20.8582 61.8742C20.8529 61.8763 20.8491 61.878 20.8469 61.8792ZM55.63 61.8642C55.63 61.8643 55.6279 61.8635 55.6235 61.8617C55.6278 61.8631 55.6299 61.8641 55.63 61.8642ZM26.8333 38C26.8333 37.0795 27.5795 36.3333 28.5 36.3333C29.4205 36.3333 30.1666 37.0795 30.1666 38C30.1666 38.9205 29.4205 39.6667 28.5 39.6667C27.5795 39.6667 26.8333 38.9205 26.8333 38ZM28.5 33.3333C25.9227 33.3333 23.8333 35.4227 23.8333 38C23.8333 40.5773 25.9227 42.6667 28.5 42.6667C31.0773 42.6667 33.1666 40.5773 33.1666 38C33.1666 35.4227 31.0773 33.3333 28.5 33.3333ZM45.8333 38C45.8333 37.0795 46.5795 36.3333 47.5 36.3333C48.4205 36.3333 49.1666 37.0795 49.1666 38C49.1666 38.9205 48.4205 39.6667 47.5 39.6667C46.5795 39.6667 45.8333 38.9205 45.8333 38ZM47.5 33.3333C44.9226 33.3333 42.8333 35.4227 42.8333 38C42.8333 40.5773 44.9226 42.6667 47.5 42.6667C50.0773 42.6667 52.1666 40.5773 52.1666 38C52.1666 35.4227 50.0773 33.3333 47.5 33.3333Z" fill="url(#paint0_linear_10_159)"/>
<defs>
<linearGradient id="paint0_linear_10_159" x1="7.99951" y1="38" x2="69.1148" y2="38" gradientUnits="userSpaceOnUse">
<stop stop-color="#5472F6"/>
<stop offset="1" stop-color="#DD3EF0"/>
</linearGradient>
</defs>
</svg>
