<svg width="26" height="23" viewBox="0 0 26 23" fill="none" xmlns="http://www.w3.org/2000/svg">
<path fill-rule="evenodd" clip-rule="evenodd" d="M16.016 0.909331C16.172 0.519384 16.5683 0.280752 16.9859 0.325298C18.9253 0.532173 21.0373 0.963006 23.0473 2.36327C23.2084 2.47547 23.3302 2.6354 23.3955 2.82051C24.6658 6.41987 25.362 9.56438 25.6313 12.0958C25.8968 14.5906 25.7598 16.5987 25.2569 17.8558C25.2472 17.88 25.2365 17.9037 25.2249 17.927C24.7722 18.8316 24.089 19.8625 23.2407 20.6817C22.4061 21.4876 21.2983 22.195 20.0115 22.195C19.6597 22.195 19.3744 22.0362 19.2207 21.9382C19.0388 21.8223 18.8646 21.6745 18.7069 21.5227C18.3888 21.2164 18.0574 20.8151 17.759 20.3889C17.4595 19.961 17.1742 19.4807 16.96 19.0072C16.8806 18.8316 16.8046 18.6434 16.7414 18.4489C14.3053 18.8598 11.9785 18.8604 9.54273 18.4508C9.48814 18.6323 9.42323 18.8093 9.35466 18.9765C9.16157 19.4473 8.90331 19.9266 8.63002 20.3553C8.35826 20.7815 8.05403 21.1852 7.7581 21.495C7.61159 21.6483 7.44663 21.8003 7.27068 21.9209C7.12386 22.0216 6.83645 22.195 6.47141 22.195C5.21182 22.195 4.14147 21.4697 3.34855 20.6656C2.53887 19.8445 1.88872 18.8132 1.45878 17.9107C1.44795 17.888 1.43803 17.8648 1.42907 17.8412C0.953304 16.5923 0.822327 14.5925 1.07477 12.1005C1.33082 9.57299 1.99279 6.43143 3.20147 2.83393C3.2632 2.65022 3.38034 2.49016 3.53677 2.37576C5.45735 0.971304 7.38331 0.534632 9.28393 0.325629C9.70253 0.279598 10.1005 0.518332 10.2569 0.909333L11.4339 3.85189C12.0075 3.7893 12.5707 3.75751 13.1364 3.75751C13.7022 3.75751 14.2654 3.7893 14.839 3.85189L16.016 0.909331ZM9.53694 4.15815L8.78554 2.27963C7.41248 2.48444 6.14146 2.86267 4.88247 3.72053C3.77297 7.08376 3.17345 9.9872 2.94023 12.2895C2.69998 14.6611 2.85889 16.295 3.16862 17.14C3.53214 17.8942 4.06496 18.7217 4.68364 19.3491C5.25679 19.9304 5.80683 20.2451 6.29172 20.3081C6.3221 20.2807 6.3591 20.245 6.40237 20.1997C6.5916 20.0017 6.82268 19.7023 7.04904 19.3472C7.27388 18.9946 7.47655 18.6146 7.61987 18.2651C7.64853 18.1952 7.67366 18.1293 7.69558 18.0675C7.34345 17.9811 6.98809 17.8866 6.62889 17.7839C6.13105 17.6417 5.84277 17.1228 5.98501 16.625C6.12726 16.1271 6.64615 15.8388 7.14399 15.9811C11.3507 17.183 14.9222 17.183 19.1289 15.9811C19.6267 15.8388 20.1456 16.1271 20.2879 16.625C20.4301 17.1228 20.1418 17.6417 19.644 17.7839C19.2909 17.8848 18.9415 17.9779 18.5953 18.0631C18.6167 18.1168 18.641 18.174 18.6683 18.2344C18.8252 18.5812 19.0478 18.9603 19.2951 19.3136C19.5436 19.6687 19.7982 19.9705 20.0074 20.1721C20.0725 20.2347 20.1258 20.2805 20.1666 20.3124C20.715 20.2594 21.3212 19.9288 21.9382 19.333C22.5896 18.704 23.1488 17.8766 23.5296 17.1246C23.8516 16.2872 24.0188 14.6619 23.7669 12.2942C23.5224 9.99632 22.8937 7.09674 21.7295 3.73654C20.3816 2.86479 18.9592 2.4821 17.4889 2.27573L16.7359 4.15815C17.4559 4.30838 18.2099 4.4999 19.019 4.73108C19.5168 4.87332 19.8051 5.39222 19.6629 5.89006C19.5206 6.38791 19.0017 6.67618 18.5039 6.53394C16.3607 5.92159 14.7348 5.63251 13.1364 5.63251C11.5381 5.63251 9.91223 5.92159 7.76899 6.53394C7.27115 6.67618 6.75226 6.38791 6.61001 5.89006C6.46777 5.39222 6.75605 4.87332 7.25389 4.73108C8.06302 4.4999 8.81693 4.30838 9.53694 4.15815ZM20.2512 20.37C20.2513 20.3704 20.2468 20.3683 20.2374 20.3626C20.2464 20.3667 20.2511 20.3696 20.2512 20.37ZM9.07395 11.2575C9.07395 11.0849 9.21386 10.945 9.38645 10.945C9.55903 10.945 9.69895 11.0849 9.69895 11.2575C9.69895 11.4301 9.55903 11.57 9.38645 11.57C9.21386 11.57 9.07395 11.4301 9.07395 11.2575ZM9.38645 9.07001C8.17832 9.07001 7.19895 10.0494 7.19895 11.2575C7.19895 12.4656 8.17832 13.445 9.38645 13.445C10.5946 13.445 11.5739 12.4656 11.5739 11.2575C11.5739 10.0494 10.5946 9.07001 9.38645 9.07001ZM16.5739 11.2575C16.5739 11.0849 16.7139 10.945 16.8864 10.945C17.059 10.945 17.1989 11.0849 17.1989 11.2575C17.1989 11.4301 17.059 11.57 16.8864 11.57C16.7139 11.57 16.5739 11.4301 16.5739 11.2575ZM16.8864 9.07001C15.6783 9.07001 14.6989 10.0494 14.6989 11.2575C14.6989 12.4656 15.6783 13.445 16.8864 13.445C18.0946 13.445 19.0739 12.4656 19.0739 11.2575C19.0739 10.0494 18.0946 9.07001 16.8864 9.07001ZM6.19393 20.3846C6.19403 20.3841 6.19884 20.3809 6.2081 20.3761C6.19847 20.3825 6.19384 20.385 6.19393 20.3846Z" fill="url(#paint0_linear_485_69)"/>
<defs>
<linearGradient id="paint0_linear_485_69" x1="0.94873" y1="11.2575" x2="25.764" y2="11.2575" gradientUnits="userSpaceOnUse">
<stop stop-color="#5472F6"/>
<stop offset="1" stop-color="#DD3EF0"/>
</linearGradient>
</defs>
</svg>
