<svg width="76" height="76" viewBox="0 0 76 76" fill="none" xmlns="http://www.w3.org/2000/svg">
<path d="M22.1667 34.8334V60.1667C22.1667 61.0066 21.833 61.8121 21.2392 62.4059C20.6453 62.9998 19.8399 63.3334 19 63.3334H12.6667C11.8268 63.3334 11.0214 62.9998 10.4275 62.4059C9.83363 61.8121 9.5 61.0066 9.5 60.1667V38.0001C9.5 37.1602 9.83363 36.3548 10.4275 35.7609C11.0214 35.167 11.8268 34.8334 12.6667 34.8334H22.1667ZM22.1667 34.8334C25.5261 34.8334 28.7479 33.4989 31.1234 31.1234C33.4988 28.748 34.8333 25.5262 34.8333 22.1667V19.0001C34.8333 17.3204 35.5006 15.7095 36.6883 14.5217C37.8761 13.334 39.487 12.6667 41.1667 12.6667C42.8464 12.6667 44.4573 13.334 45.645 14.5217C46.8327 15.7095 47.5 17.3204 47.5 19.0001V34.8334H57C58.6797 34.8334 60.2906 35.5007 61.4783 36.6884C62.6661 37.8761 63.3333 39.487 63.3333 41.1667L60.1667 57.0001C59.7113 58.9428 58.8473 60.6109 57.7051 61.7531C56.5628 62.8954 55.204 63.45 53.8333 63.3334H31.6667C29.1471 63.3334 26.7307 62.3325 24.9492 60.5509C23.1676 58.7693 22.1667 56.353 22.1667 53.8334" stroke="white" stroke-width="1.58333" stroke-linecap="round" stroke-linejoin="round"/>
</svg>
