<svg width="48" height="49" viewBox="0 0 48 49" fill="none" xmlns="http://www.w3.org/2000/svg">
<path d="M0.5 10C0.5 4.7533 4.75329 0.5 10 0.5H48.5V48.5H10C4.7533 48.5 0.5 44.2467 0.5 39V10Z" fill="url(#paint0_linear_63_364)"/>
<path fill-rule="evenodd" clip-rule="evenodd" d="M17 15.4375C16.1371 15.4375 15.4375 16.1371 15.4375 17V32C15.4375 32.8629 16.1371 33.5625 17 33.5625H32C32.8629 33.5625 33.5625 32.8629 33.5625 32V17C33.5625 16.1371 32.8629 15.4375 32 15.4375H17ZM13.5625 17C13.5625 15.1015 15.1015 13.5625 17 13.5625H32C33.8985 13.5625 35.4375 15.1015 35.4375 17V32C35.4375 33.8985 33.8985 35.4375 32 35.4375H17C15.1015 35.4375 13.5625 33.8985 13.5625 32V17Z" fill="white"/>
<path fill-rule="evenodd" clip-rule="evenodd" d="M19.5 22.3125C20.0178 22.3125 20.4375 22.7322 20.4375 23.25V29.5C20.4375 30.0178 20.0178 30.4375 19.5 30.4375C18.9822 30.4375 18.5625 30.0178 18.5625 29.5V23.25C18.5625 22.7322 18.9822 22.3125 19.5 22.3125Z" fill="white"/>
<path fill-rule="evenodd" clip-rule="evenodd" d="M19.5 18.5625C20.0178 18.5625 20.4375 18.9822 20.4375 19.5V19.5125C20.4375 20.0303 20.0178 20.45 19.5 20.45C18.9822 20.45 18.5625 20.0303 18.5625 19.5125V19.5C18.5625 18.9822 18.9822 18.5625 19.5 18.5625Z" fill="white"/>
<path fill-rule="evenodd" clip-rule="evenodd" d="M24.5 22.3125C25.0178 22.3125 25.4375 22.7322 25.4375 23.25V29.5C25.4375 30.0178 25.0178 30.4375 24.5 30.4375C23.9822 30.4375 23.5625 30.0178 23.5625 29.5V23.25C23.5625 22.7322 23.9822 22.3125 24.5 22.3125Z" fill="white"/>
<path fill-rule="evenodd" clip-rule="evenodd" d="M24.5693 23.3193C25.214 22.6747 26.0883 22.3125 27 22.3125C27.9117 22.3125 28.786 22.6747 29.4307 23.3193C30.0753 23.964 30.4375 24.8383 30.4375 25.75V29.5C30.4375 30.0178 30.0178 30.4375 29.5 30.4375C28.9822 30.4375 28.5625 30.0178 28.5625 29.5V25.75C28.5625 25.3356 28.3979 24.9382 28.1049 24.6451C27.8118 24.3521 27.4144 24.1875 27 24.1875C26.5856 24.1875 26.1882 24.3521 25.8951 24.6451C25.6021 24.9382 25.4375 25.3356 25.4375 25.75C25.4375 26.2678 25.0178 26.6875 24.5 26.6875C23.9822 26.6875 23.5625 26.2678 23.5625 25.75C23.5625 24.8383 23.9247 23.964 24.5693 23.3193Z" fill="white"/>
<path d="M0.5 10C0.5 4.7533 4.75329 0.5 10 0.5H48.5V48.5H10C4.7533 48.5 0.5 44.2467 0.5 39V10Z" stroke="url(#paint1_linear_63_364)"/>
<defs>
<linearGradient id="paint0_linear_63_364" x1="0" y1="49" x2="49" y2="0" gradientUnits="userSpaceOnUse">
<stop stop-color="#5472F6" stop-opacity="0.1"/>
<stop offset="1" stop-color="#DD3EF0" stop-opacity="0.1"/>
</linearGradient>
<linearGradient id="paint1_linear_63_364" x1="-1.82539e-07" y1="24.5" x2="49" y2="24.5" gradientUnits="userSpaceOnUse">
<stop stop-color="#5472F6"/>
<stop offset="1" stop-color="#DD3EF0"/>
</linearGradient>
</defs>
</svg>
