<svg width="31" height="31" viewBox="0 0 31 31" fill="none" xmlns="http://www.w3.org/2000/svg">
<path fill-rule="evenodd" clip-rule="evenodd" d="M8 6.4375C7.13705 6.4375 6.4375 7.13705 6.4375 8V23C6.4375 23.8629 7.13705 24.5625 8 24.5625H23C23.8629 24.5625 24.5625 23.8629 24.5625 23V8C24.5625 7.13705 23.8629 6.4375 23 6.4375H8ZM4.5625 8C4.5625 6.10152 6.10152 4.5625 8 4.5625H23C24.8985 4.5625 26.4375 6.10152 26.4375 8V23C26.4375 24.8985 24.8985 26.4375 23 26.4375H8C6.10152 26.4375 4.5625 24.8985 4.5625 23V8Z" fill="white"/>
<path fill-rule="evenodd" clip-rule="evenodd" d="M10.5 13.3125C11.0178 13.3125 11.4375 13.7322 11.4375 14.25V20.5C11.4375 21.0178 11.0178 21.4375 10.5 21.4375C9.98223 21.4375 9.5625 21.0178 9.5625 20.5V14.25C9.5625 13.7322 9.98223 13.3125 10.5 13.3125Z" fill="white"/>
<path fill-rule="evenodd" clip-rule="evenodd" d="M10.5 9.5625C11.0178 9.5625 11.4375 9.98223 11.4375 10.5V10.5125C11.4375 11.0303 11.0178 11.45 10.5 11.45C9.98223 11.45 9.5625 11.0303 9.5625 10.5125V10.5C9.5625 9.98223 9.98223 9.5625 10.5 9.5625Z" fill="white"/>
<path fill-rule="evenodd" clip-rule="evenodd" d="M15.5 13.3125C16.0178 13.3125 16.4375 13.7322 16.4375 14.25V20.5C16.4375 21.0178 16.0178 21.4375 15.5 21.4375C14.9822 21.4375 14.5625 21.0178 14.5625 20.5V14.25C14.5625 13.7322 14.9822 13.3125 15.5 13.3125Z" fill="white"/>
<path fill-rule="evenodd" clip-rule="evenodd" d="M15.5693 14.3193C16.214 13.6747 17.0883 13.3125 18 13.3125C18.9117 13.3125 19.786 13.6747 20.4307 14.3193C21.0753 14.964 21.4375 15.8383 21.4375 16.75V20.5C21.4375 21.0178 21.0178 21.4375 20.5 21.4375C19.9822 21.4375 19.5625 21.0178 19.5625 20.5V16.75C19.5625 16.3356 19.3979 15.9382 19.1049 15.6451C18.8118 15.3521 18.4144 15.1875 18 15.1875C17.5856 15.1875 17.1882 15.3521 16.8951 15.6451C16.6021 15.9382 16.4375 16.3356 16.4375 16.75C16.4375 17.2678 16.0178 17.6875 15.5 17.6875C14.9822 17.6875 14.5625 17.2678 14.5625 16.75C14.5625 15.8383 14.9247 14.964 15.5693 14.3193Z" fill="white"/>
</svg>
