<svg width="33" height="19" viewBox="0 0 33 19" fill="none" xmlns="http://www.w3.org/2000/svg">
<path d="M9.09761 1.25749L9.09916 1.25749C10.1515 1.25585 11.1938 1.46153 12.1666 1.86277C13.1394 2.26401 14.0236 2.85296 14.7688 3.59597C15.5139 4.33899 16.1054 5.22152 16.5095 6.19316C16.9135 7.1648 17.1222 8.20652 17.1236 9.25882C17.1229 13.6733 13.5335 17.2575 9.09761 17.2575H9.09628C8.04413 17.2589 7.002 17.053 6.0294 16.6517C5.05681 16.2503 4.17278 15.6614 3.42781 14.9184C2.68284 14.1754 2.0915 13.2929 1.68757 12.3214C1.28372 11.3501 1.0751 10.3088 1.07361 9.25683C1.07397 4.84001 4.66351 1.25749 9.09761 1.25749ZM27.0236 9.25749C27.0236 11.4668 26.5447 13.4169 25.8195 14.7784C25.0713 16.1831 24.2079 16.7295 23.5116 16.7295C22.8155 16.7295 21.9521 16.1829 21.2038 14.7777C20.4785 13.4159 19.9996 11.4658 19.9996 9.25749C19.9996 7.04815 20.4786 5.0981 21.2037 3.73658C21.9519 2.33185 22.8153 1.78549 23.5116 1.78549C24.2077 1.78549 25.0711 2.33207 25.8195 3.73727C26.5447 5.09911 27.0236 7.04921 27.0236 9.25749ZM31.0736 9.25749C31.0736 11.3061 30.8994 13.1318 30.63 14.4198C30.5834 14.6427 30.5352 14.8433 30.4865 15.0218C30.4378 14.8431 30.3896 14.6423 30.343 14.4192C30.0738 13.1308 29.8996 11.3051 29.8996 9.25749C29.8996 7.20886 30.0738 5.38322 30.3432 4.0952C30.3898 3.87216 30.4381 3.67143 30.4868 3.49287C30.5355 3.6714 30.5837 3.87208 30.6302 4.09503C30.8994 5.38317 31.0736 7.20888 31.0736 9.25749Z" stroke="url(#paint0_linear_485_56)" stroke-width="2"/>
<defs>
<linearGradient id="paint0_linear_485_56" x1="0.0736083" y1="9.25749" x2="32.0736" y2="9.25749" gradientUnits="userSpaceOnUse">
<stop stop-color="#5472F6"/>
<stop offset="1" stop-color="#DD3EF0"/>
</linearGradient>
</defs>
</svg>
