<svg width="76" height="76" viewBox="0 0 76 76" fill="none" xmlns="http://www.w3.org/2000/svg">
<path d="M50.6666 28.5C59.4112 28.5 66.5 24.2467 66.5 19C66.5 13.7533 59.4112 9.5 50.6666 9.5C41.9221 9.5 34.8333 13.7533 34.8333 19C34.8333 24.2467 41.9221 28.5 50.6666 28.5Z" stroke="white" stroke-width="1.58333" stroke-linecap="round" stroke-linejoin="round"/>
<path d="M34.8333 19V31.6667C34.8333 36.9138 41.9235 41.1667 50.6666 41.1667C59.4098 41.1667 66.5 36.9138 66.5 31.6667V19" stroke="white" stroke-width="1.58333" stroke-linecap="round" stroke-linejoin="round"/>
<path d="M34.8333 31.6666V44.3333C34.8333 49.5805 41.9235 53.8333 50.6666 53.8333C59.4098 53.8333 66.5 49.5805 66.5 44.3333V31.6666" stroke="white" stroke-width="1.58333" stroke-linecap="round" stroke-linejoin="round"/>
<path d="M34.8333 44.3334V57C34.8333 62.2472 41.9235 66.5 50.6666 66.5C59.4098 66.5 66.5 62.2472 66.5 57V44.3334" stroke="white" stroke-width="1.58333" stroke-linecap="round" stroke-linejoin="round"/>
<path d="M22.1667 28.5H14.25C12.9902 28.5 11.782 29.0004 10.8912 29.8912C10.0004 30.782 9.5 31.9902 9.5 33.25C9.5 34.5098 10.0004 35.718 10.8912 36.6088C11.782 37.4996 12.9902 38 14.25 38H17.4167C18.6764 38 19.8846 38.5004 20.7754 39.3912C21.6662 40.282 22.1667 41.4902 22.1667 42.75C22.1667 44.0098 21.6662 45.218 20.7754 46.1088C19.8846 46.9996 18.6764 47.5 17.4167 47.5H9.5" stroke="white" stroke-width="1.58333" stroke-linecap="round" stroke-linejoin="round"/>
<path d="M15.8333 25.3334V28.5M15.8333 47.5V50.6667V47.5Z" stroke="white" stroke-width="1.58333" stroke-linecap="round" stroke-linejoin="round"/>
</svg>
