<svg width="76" height="76" viewBox="0 0 76 76" fill="none" xmlns="http://www.w3.org/2000/svg">
<path d="M44.3333 19C46.013 19 47.6239 19.6673 48.8117 20.855C49.9994 22.0427 50.6667 23.6536 50.6667 25.3333V38C50.6667 39.6797 49.9994 41.2906 48.8117 42.4783C47.6239 43.6661 46.013 44.3333 44.3333 44.3333C42.6536 44.3333 41.0427 43.6661 39.855 42.4783C38.6673 41.2906 38 39.6797 38 38V25.3333C38 23.6536 38.6673 22.0427 39.855 20.855C41.0427 19.6673 42.6536 19 44.3333 19Z" stroke="white" stroke-width="1.58333" stroke-linecap="round" stroke-linejoin="round"/>
<path d="M60.1667 9.5H28.5C25.0022 9.5 22.1667 12.3355 22.1667 15.8333V47.5C22.1667 50.9978 25.0022 53.8333 28.5 53.8333H60.1667C63.6645 53.8333 66.5 50.9978 66.5 47.5V15.8333C66.5 12.3355 63.6645 9.5 60.1667 9.5Z" stroke="white" stroke-width="1.58333" stroke-linecap="round" stroke-linejoin="round"/>
<path d="M53.8333 53.8334V60.1667C53.8333 61.8465 53.1661 63.4574 51.9783 64.6451C50.7906 65.8328 49.1797 66.5001 47.5 66.5001H15.8333C14.1536 66.5001 12.5427 65.8328 11.355 64.6451C10.1673 63.4574 9.5 61.8465 9.5 60.1667V28.5001C9.5 26.8204 10.1673 25.2095 11.355 24.0217C12.5427 22.834 14.1536 22.1667 15.8333 22.1667H22.1667" stroke="white" stroke-width="1.58333" stroke-linecap="round" stroke-linejoin="round"/>
</svg>
