<svg width="48" height="49" viewBox="0 0 48 49" fill="none" xmlns="http://www.w3.org/2000/svg">
<path d="M0.5 10C0.5 4.7533 4.75329 0.5 10 0.5H48.5V48.5H10C4.7533 48.5 0.5 44.2467 0.5 39V10Z" fill="url(#paint0_linear_63_350)"/>
<g clip-path="url(#clip0_63_350)">
<path fill-rule="evenodd" clip-rule="evenodd" d="M23.2513 20.4375C20.1264 20.4375 17.3647 21.4151 15.4934 22.9079C15.2411 23.1091 14.9031 23.1665 14.5986 23.0597C14.1056 22.8869 13.5671 22.8962 13.0803 23.086C12.5936 23.2758 12.1909 23.6335 11.945 24.0944C11.6991 24.5553 11.6263 25.0891 11.7397 25.599C11.8392 26.0463 12.0762 26.4494 12.415 26.753L13.4404 26.9643C13.8609 27.0509 14.1688 27.4121 14.1878 27.841C14.2686 29.6607 15.3464 31.3854 17.202 32.6864C19.055 33.9857 21.6267 34.8125 24.5013 34.8125C27.4323 34.8125 30.0478 33.953 31.9071 32.6103C33.7676 31.2666 34.8138 29.492 34.8138 27.625C34.8138 27.3298 34.9528 27.0518 35.1891 26.8747C35.6072 26.5615 35.8994 26.109 36.0128 25.599C36.1262 25.0891 36.0534 24.5553 35.8075 24.0944C35.5616 23.6335 35.1589 23.2758 34.6722 23.086C34.1854 22.8962 33.6469 22.8869 33.1539 23.0597C32.8493 23.1665 32.5113 23.1091 32.2591 22.9078C30.3867 21.414 27.625 20.4375 24.5 20.4375H23.2513ZM14.7097 21.1482C16.9257 19.5338 19.9517 18.5625 23.2513 18.5625H24.5C27.7995 18.5625 30.8256 19.5326 33.0429 21.1482C33.8115 20.9869 34.6146 21.0511 35.3533 21.3391C36.2572 21.6916 37.0052 22.3559 37.4618 23.2119C37.9185 24.0679 38.0537 25.059 37.8431 26.0061C37.6668 26.7986 37.2581 27.5163 36.6745 28.0704C36.5182 30.5044 35.0899 32.6245 33.0048 34.1303C30.7922 35.7282 27.7827 36.6875 24.5013 36.6875C21.2821 36.6875 18.3256 35.7643 16.1255 34.2217C14.1429 32.8316 12.7279 30.8976 12.387 28.6617L11.8121 28.5432C11.6769 28.5154 11.5496 28.458 11.4391 28.3753C10.6627 27.7935 10.1201 26.9532 9.90941 26.0061C9.69877 25.059 9.83401 24.0679 10.2907 23.2119C10.7473 22.3559 11.4953 21.6916 12.3992 21.3391C13.1379 21.0511 13.941 20.9869 14.7097 21.1482Z" fill="white"/>
<path fill-rule="evenodd" clip-rule="evenodd" d="M24.8308 13.0661C24.93 12.57 25.4051 12.2421 25.9042 12.3253L33.4042 13.5753C33.9149 13.6604 34.2599 14.1434 34.1748 14.6541C34.0897 15.1648 33.6067 15.5099 33.0959 15.4247L26.4913 14.324L25.4194 19.6839C25.3178 20.1916 24.8239 20.5208 24.3162 20.4193C23.8085 20.3177 23.4792 19.8238 23.5808 19.3161L24.8308 13.0661Z" fill="white"/>
<path fill-rule="evenodd" clip-rule="evenodd" d="M33.25 14.1875C33.0774 14.1875 32.9375 14.3274 32.9375 14.5C32.9375 14.6726 33.0774 14.8125 33.25 14.8125C33.4226 14.8125 33.5625 14.6726 33.5625 14.5C33.5625 14.3274 33.4226 14.1875 33.25 14.1875ZM31.0625 14.5C31.0625 13.2919 32.0419 12.3125 33.25 12.3125C34.4581 12.3125 35.4375 13.2919 35.4375 14.5C35.4375 15.7081 34.4581 16.6875 33.25 16.6875C32.0419 16.6875 31.0625 15.7081 31.0625 14.5Z" fill="white"/>
<path d="M20.75 26.375C21.0952 26.375 21.375 26.0952 21.375 25.75C21.375 25.4048 21.0952 25.125 20.75 25.125C20.4048 25.125 20.125 25.4048 20.125 25.75C20.125 26.0952 20.4048 26.375 20.75 26.375Z" fill="black"/>
<path fill-rule="evenodd" clip-rule="evenodd" d="M20.75 26.0625C20.9226 26.0625 21.0625 25.9226 21.0625 25.75C21.0625 25.5774 20.9226 25.4375 20.75 25.4375C20.5774 25.4375 20.4375 25.5774 20.4375 25.75C20.4375 25.9226 20.5774 26.0625 20.75 26.0625ZM19.1875 25.75C19.1875 24.8871 19.8871 24.1875 20.75 24.1875C21.6129 24.1875 22.3125 24.8871 22.3125 25.75C22.3125 26.6129 21.6129 27.3125 20.75 27.3125C19.8871 27.3125 19.1875 26.6129 19.1875 25.75Z" fill="white"/>
<path d="M28.25 26.375C28.5952 26.375 28.875 26.0952 28.875 25.75C28.875 25.4048 28.5952 25.125 28.25 25.125C27.9048 25.125 27.625 25.4048 27.625 25.75C27.625 26.0952 27.9048 26.375 28.25 26.375Z" fill="black"/>
<path fill-rule="evenodd" clip-rule="evenodd" d="M28.25 26.0625C28.4226 26.0625 28.5625 25.9226 28.5625 25.75C28.5625 25.5774 28.4226 25.4375 28.25 25.4375C28.0774 25.4375 27.9375 25.5774 27.9375 25.75C27.9375 25.9226 28.0774 26.0625 28.25 26.0625ZM26.6875 25.75C26.6875 24.8871 27.3871 24.1875 28.25 24.1875C29.1129 24.1875 29.8125 24.8871 29.8125 25.75C29.8125 26.6129 29.1129 27.3125 28.25 27.3125C27.3871 27.3125 26.6875 26.6129 26.6875 25.75Z" fill="white"/>
<path fill-rule="evenodd" clip-rule="evenodd" d="M21.1612 30.3312C21.3925 29.868 21.9555 29.6799 22.4187 29.9112C23.1385 30.2706 23.8286 30.4375 24.5 30.4375C25.1714 30.4375 25.8614 30.2706 26.5812 29.9112C27.0444 29.6799 27.6075 29.868 27.8387 30.3312C28.07 30.7945 27.882 31.3575 27.4187 31.5888C26.471 32.0619 25.4961 32.3125 24.5 32.3125C23.5039 32.3125 22.5289 32.0619 21.5812 31.5888C21.118 31.3575 20.9299 30.7945 21.1612 30.3312Z" fill="white"/>
</g>
<path d="M0.5 10C0.5 4.7533 4.75329 0.5 10 0.5H48.5V48.5H10C4.7533 48.5 0.5 44.2467 0.5 39V10Z" stroke="url(#paint1_linear_63_350)"/>
<defs>
<linearGradient id="paint0_linear_63_350" x1="0" y1="49" x2="49" y2="0" gradientUnits="userSpaceOnUse">
<stop stop-color="#5472F6" stop-opacity="0.1"/>
<stop offset="1" stop-color="#DD3EF0" stop-opacity="0.1"/>
</linearGradient>
<linearGradient id="paint1_linear_63_350" x1="-1.82539e-07" y1="24.5" x2="49" y2="24.5" gradientUnits="userSpaceOnUse">
<stop stop-color="#5472F6"/>
<stop offset="1" stop-color="#DD3EF0"/>
</linearGradient>
<clipPath id="clip0_63_350">
<rect width="30" height="30" fill="white" transform="translate(9.5 9.5)"/>
</clipPath>
</defs>
</svg>
