<svg width="31" height="31" viewBox="0 0 31 31" fill="none" xmlns="http://www.w3.org/2000/svg">
<g clip-path="url(#clip0_63_351)">
<path fill-rule="evenodd" clip-rule="evenodd" d="M14.2513 11.4375C11.1264 11.4375 8.3647 12.4151 6.49337 13.9079C6.24112 14.1091 5.90313 14.1665 5.59863 14.0597C5.10563 13.8869 4.56705 13.8962 4.08033 14.086C3.59361 14.2758 3.19088 14.6335 2.94498 15.0944C2.69909 15.5553 2.62626 16.0891 2.73969 16.599C2.83917 17.0463 3.07616 17.4494 3.41501 17.753L4.4404 17.9643C4.86089 18.0509 5.1688 18.4121 5.18783 18.841C5.26856 20.6607 6.34641 22.3854 8.20197 23.6864C10.055 24.9857 12.6267 25.8125 15.5013 25.8125C18.4323 25.8125 21.0478 24.953 22.9071 23.6103C24.7676 22.2666 25.8138 20.492 25.8138 18.625C25.8138 18.3298 25.9528 18.0518 26.1891 17.8747C26.6072 17.5615 26.8994 17.109 27.0128 16.599C27.1262 16.0891 27.0534 15.5553 26.8075 15.0944C26.5616 14.6335 26.1589 14.2758 25.6722 14.086C25.1854 13.8962 24.6469 13.8869 24.1539 14.0597C23.8493 14.1665 23.5113 14.1091 23.2591 13.9078C21.3867 12.414 18.625 11.4375 15.5 11.4375H14.2513ZM5.70965 12.1482C7.92568 10.5338 10.9517 9.5625 14.2513 9.5625H15.5C18.7995 9.5625 21.8256 10.5326 24.0429 12.1482C24.8115 11.9869 25.6146 12.0511 26.3533 12.3391C27.2572 12.6916 28.0052 13.3559 28.4618 14.2119C28.9185 15.0679 29.0537 16.059 28.8431 17.0061C28.6668 17.7986 28.2581 18.5163 27.6745 19.0704C27.5182 21.5044 26.0899 23.6245 24.0048 25.1303C21.7922 26.7282 18.7827 27.6875 15.5013 27.6875C12.2821 27.6875 9.32563 26.7643 7.12553 25.2217C5.14292 23.8316 3.72787 21.8976 3.38701 19.6617L2.8121 19.5432C2.67693 19.5154 2.54957 19.458 2.43912 19.3753C1.66268 18.7935 1.12006 17.9531 0.909414 17.0061C0.698769 16.059 0.834011 15.0679 1.29068 14.2119C1.74734 13.3559 2.49527 12.6916 3.39918 12.3391C4.13794 12.0511 4.94102 11.9869 5.70965 12.1482Z" fill="white"/>
<path fill-rule="evenodd" clip-rule="evenodd" d="M15.8308 4.06614C15.93 3.56996 16.4051 3.24207 16.9042 3.32525L24.4042 4.57525C24.9149 4.66037 25.2599 5.1434 25.1748 5.65412C25.0897 6.16484 24.6067 6.50986 24.0959 6.42474L17.4913 5.32397L16.4194 10.6839C16.3178 11.1916 15.8239 11.5208 15.3162 11.4193C14.8085 11.3177 14.4792 10.8238 14.5808 10.3161L15.8308 4.06614Z" fill="white"/>
<path fill-rule="evenodd" clip-rule="evenodd" d="M24.25 5.1875C24.0774 5.1875 23.9375 5.32741 23.9375 5.5C23.9375 5.67259 24.0774 5.8125 24.25 5.8125C24.4226 5.8125 24.5625 5.67259 24.5625 5.5C24.5625 5.32741 24.4226 5.1875 24.25 5.1875ZM22.0625 5.5C22.0625 4.29188 23.0419 3.3125 24.25 3.3125C25.4581 3.3125 26.4375 4.29188 26.4375 5.5C26.4375 6.70812 25.4581 7.6875 24.25 7.6875C23.0419 7.6875 22.0625 6.70812 22.0625 5.5Z" fill="white"/>
<path d="M11.75 17.375C12.0952 17.375 12.375 17.0952 12.375 16.75C12.375 16.4048 12.0952 16.125 11.75 16.125C11.4048 16.125 11.125 16.4048 11.125 16.75C11.125 17.0952 11.4048 17.375 11.75 17.375Z" fill="black"/>
<path fill-rule="evenodd" clip-rule="evenodd" d="M11.75 17.0625C11.9226 17.0625 12.0625 16.9226 12.0625 16.75C12.0625 16.5774 11.9226 16.4375 11.75 16.4375C11.5774 16.4375 11.4375 16.5774 11.4375 16.75C11.4375 16.9226 11.5774 17.0625 11.75 17.0625ZM10.1875 16.75C10.1875 15.8871 10.8871 15.1875 11.75 15.1875C12.6129 15.1875 13.3125 15.8871 13.3125 16.75C13.3125 17.6129 12.6129 18.3125 11.75 18.3125C10.8871 18.3125 10.1875 17.6129 10.1875 16.75Z" fill="white"/>
<path d="M19.25 17.375C19.5952 17.375 19.875 17.0952 19.875 16.75C19.875 16.4048 19.5952 16.125 19.25 16.125C18.9048 16.125 18.625 16.4048 18.625 16.75C18.625 17.0952 18.9048 17.375 19.25 17.375Z" fill="black"/>
<path fill-rule="evenodd" clip-rule="evenodd" d="M19.25 17.0625C19.4226 17.0625 19.5625 16.9226 19.5625 16.75C19.5625 16.5774 19.4226 16.4375 19.25 16.4375C19.0774 16.4375 18.9375 16.5774 18.9375 16.75C18.9375 16.9226 19.0774 17.0625 19.25 17.0625ZM17.6875 16.75C17.6875 15.8871 18.3871 15.1875 19.25 15.1875C20.1129 15.1875 20.8125 15.8871 20.8125 16.75C20.8125 17.6129 20.1129 18.3125 19.25 18.3125C18.3871 18.3125 17.6875 17.6129 17.6875 16.75Z" fill="white"/>
<path fill-rule="evenodd" clip-rule="evenodd" d="M12.1612 21.3312C12.3925 20.868 12.9555 20.6799 13.4187 20.9112C14.1385 21.2706 14.8286 21.4375 15.5 21.4375C16.1714 21.4375 16.8614 21.2706 17.5812 20.9112C18.0444 20.6799 18.6075 20.868 18.8387 21.3312C19.07 21.7945 18.882 22.3575 18.4187 22.5888C17.471 23.0619 16.4961 23.3125 15.5 23.3125C14.5039 23.3125 13.5289 23.0619 12.5812 22.5888C12.118 22.3575 11.9299 21.7945 12.1612 21.3312Z" fill="white"/>
</g>
<defs>
<clipPath id="clip0_63_351">
<rect width="30" height="30" fill="white" transform="translate(0.5 0.5)"/>
</clipPath>
</defs>
</svg>
