<svg width="31" height="31" viewBox="0 0 29 25" fill="none" xmlns="http://www.w3.org/2000/svg">
<path d="M27.3476 0.719611C27.0702 0.484521 26.7342 0.328997 26.3755 0.26957C26.0167 0.210144 25.6485 0.249035 25.3101 0.382111L2.23511 9.44461C1.83037 9.59881 1.48755 9.88178 1.25942 10.2499C1.0313 10.6181 0.93052 11.0511 0.972605 11.4821C1.01015 11.913 1.18637 12.3201 1.47485 12.6424C1.76332 12.9647 2.14849 13.1847 2.57261 13.2696L8.43511 14.4321V21.7571C8.4349 22.1534 8.55241 22.5408 8.77273 22.8702C8.99306 23.1995 9.30626 23.456 9.67261 23.6071C9.91506 23.7047 10.1738 23.7556 10.4351 23.7571C10.6978 23.758 10.958 23.7066 11.2005 23.6057C11.4431 23.5048 11.6631 23.3566 11.8476 23.1696L15.0976 19.9321L20.0101 24.2571C20.3728 24.577 20.839 24.7546 21.3226 24.7571C21.5352 24.7615 21.7469 24.7276 21.9476 24.6571C22.2775 24.5527 22.5744 24.3641 22.8089 24.1098C23.0435 23.8554 23.2077 23.5443 23.2851 23.2071L27.9851 2.68211C28.0673 2.32794 28.0513 1.95808 27.939 1.6123C27.8267 1.26652 27.6222 0.95789 27.3476 0.719611ZM9.19761 12.5446L2.97261 11.3071L20.4226 4.44461L9.19761 12.5446ZM10.4351 21.7571V15.8321L13.5851 18.6071L10.4351 21.7571ZM21.3351 22.7571L11.0351 13.6946L25.8726 2.98211L21.3351 22.7571Z" fill="white"/>
</svg>
