<svg width="214" height="523" viewBox="0 0 214 523" fill="none" xmlns="http://www.w3.org/2000/svg">
<path fill-rule="evenodd" clip-rule="evenodd" d="M37.9228 0.352529C38.0696 0.132288 38.3168 0 38.5815 0C38.8462 0 39.0934 0.132288 39.2402 0.352529L213.03 261.037C213.093 261.132 213.134 261.237 213.152 261.344C213.162 261.406 213.165 261.469 213.161 261.532C213.151 261.676 213.102 261.81 213.024 261.924L39.2402 522.6C39.0934 522.82 38.8462 522.953 38.5815 522.953C38.3168 522.953 38.0696 522.82 37.9228 522.6L-135.861 261.924C-135.863 261.921 -135.865 261.918 -135.867 261.915C-135.945 261.799 -135.988 261.667 -135.998 261.533C-135.999 261.514 -136 261.495 -136 261.476C-136 261.323 -135.956 261.17 -135.867 261.037L37.9228 0.352529ZM-132.896 259.435L38.5815 2.21886L210.059 259.435L38.9355 173.873C38.7126 173.762 38.4503 173.762 38.2274 173.873L-132.896 259.435ZM210.432 262.957L38.5815 520.734L-133.27 262.957L38.3311 320.157C38.4936 320.211 38.6693 320.211 38.8318 320.157L210.432 262.957ZM38.5815 318.572L210.308 261.33L38.5815 175.467L-133.145 261.33L38.5815 318.572Z" fill="url(#paint0_linear_63_245)"/>
<defs>
<linearGradient id="paint0_linear_63_245" x1="213.163" y1="522.953" x2="-269.843" y2="200.461" gradientUnits="userSpaceOnUse">
<stop stop-color="#5472F6"/>
<stop offset="1" stop-color="#DD3EF0"/>
</linearGradient>
</defs>
</svg>
