<svg width="510" height="487" viewBox="0 0 510 487" fill="none" xmlns="http://www.w3.org/2000/svg">
<path d="M628.2 163.802C640.119 201.375 618.443 245.852 573.399 287.433C528.388 328.985 460.178 367.504 379.436 393.117C298.694 418.729 220.753 426.569 160.02 418.56C99.2445 410.546 55.8944 386.696 43.9757 349.122C32.0571 311.549 53.7334 267.072 98.7771 225.49C143.788 183.939 211.998 145.419 292.74 119.807C373.483 94.195 451.424 86.3547 512.156 94.3634C572.932 102.378 616.282 126.228 628.2 163.802Z" stroke="url(#paint0_linear_63_371)"/>
<path d="M493.545 78.9881C500.357 100.464 487.98 125.951 462.098 149.844C436.249 173.706 397.064 195.837 350.668 210.555C304.272 225.272 259.496 229.773 224.618 225.174C189.697 220.569 164.891 206.877 158.079 185.401C151.266 163.924 163.644 138.437 189.526 114.545C215.375 90.6826 254.559 68.5512 300.955 53.834C347.351 39.1169 392.128 34.6152 427.006 39.2145C461.927 43.8196 486.732 57.5119 493.545 78.9881Z" stroke="url(#paint1_linear_63_371)"/>
<defs>
<linearGradient id="paint0_linear_63_371" x1="86.9983" y1="486.405" x2="155.122" y2="-30.1923" gradientUnits="userSpaceOnUse">
<stop stop-color="#5472F6"/>
<stop offset="1" stop-color="#DD3EF0" stop-opacity="0"/>
</linearGradient>
<linearGradient id="paint1_linear_63_371" x1="182.61" y1="264.389" x2="221.774" y2="-32.6034" gradientUnits="userSpaceOnUse">
<stop stop-color="#5472F6"/>
<stop offset="1" stop-color="#DD3EF0" stop-opacity="0"/>
</linearGradient>
</defs>
</svg>
