<svg width="28" height="25" viewBox="0 0 28 25" fill="none" xmlns="http://www.w3.org/2000/svg">
<path d="M26.3843 0.477096C26.1069 0.242005 25.771 0.0864813 25.4122 0.0270547C25.0534 -0.0323719 24.6853 0.00651966 24.3468 0.139596L1.27185 9.2021C0.867116 9.3563 0.524294 9.63926 0.296168 10.0074C0.0680421 10.3756 -0.032737 10.8085 0.00934844 11.2396C0.0468954 11.6705 0.223117 12.0776 0.511588 12.3999C0.800059 12.7221 1.18523 12.9422 1.60935 13.0271L7.47185 14.1896V21.5146C7.47164 21.9109 7.58915 22.2983 7.80948 22.6276C8.0298 22.957 8.34301 23.2135 8.70935 23.3646C8.9518 23.4622 9.2105 23.5131 9.47185 23.5146C9.73453 23.5155 9.99475 23.464 10.2373 23.3632C10.4798 23.2623 10.6998 23.114 10.8843 22.9271L14.1343 19.6896L19.0469 24.0146C19.4095 24.3345 19.8758 24.5121 20.3594 24.5146C20.572 24.519 20.7837 24.4851 20.9844 24.4146C21.3142 24.3102 21.6111 24.1216 21.8457 23.8672C22.0803 23.6129 22.2444 23.3018 22.3218 22.9646L27.0218 2.4396C27.104 2.08543 27.0881 1.71557 26.9757 1.36978C26.8634 1.024 26.659 0.715375 26.3843 0.477096ZM8.23435 12.3021L2.00935 11.0646L19.4593 4.2021L8.23435 12.3021ZM9.47185 21.5146V15.5896L12.6218 18.3646L9.47185 21.5146ZM20.3718 22.5146L10.0718 13.4521L24.9093 2.7396L20.3718 22.5146Z" fill="url(#paint0_linear_485_58)"/>
<defs>
<linearGradient id="paint0_linear_485_58" x1="-1.00857e-07" y1="12.2575" x2="27.0736" y2="12.2575" gradientUnits="userSpaceOnUse">
<stop stop-color="#5472F6"/>
<stop offset="1" stop-color="#DD3EF0"/>
</linearGradient>
</defs>
</svg>
