<svg width="31" height="31" viewBox="0 0 31 31" fill="none" xmlns="http://www.w3.org/2000/svg">
<path fill-rule="evenodd" clip-rule="evenodd" d="M24.5233 5.69669C22.7923 4.14458 20.4642 4.19513 18.4462 4.95078C16.1029 5.82825 14.5309 7.99476 14.5625 10.5061V10.8003C11.1982 10.6207 8.23887 8.96515 6.26226 6.20426C6.0757 5.94368 5.76897 5.79645 5.44898 5.81389C5.12898 5.83132 4.84006 6.011 4.68292 6.2903L5.49998 6.75C4.68292 6.2903 4.68266 6.29075 4.68239 6.29124L4.68174 6.29239L4.68009 6.29535L4.67539 6.30382L4.66062 6.3309C4.64846 6.35339 4.63177 6.38472 4.6112 6.42445C4.57008 6.50389 4.51335 6.61709 4.44621 6.76058C4.31208 7.04721 4.13542 7.45669 3.95842 7.96086C3.60623 8.96401 3.24275 10.3699 3.22721 11.9437C3.2116 13.5247 3.54779 15.2908 4.61184 16.9719C5.45696 18.3072 6.73349 19.545 8.57148 20.5866C6.80534 21.5734 5.04886 22.1415 3.03644 22.0632C2.60136 22.0463 2.21188 22.3311 2.09618 22.7509C1.98048 23.1706 2.169 23.6148 2.55131 23.8232C6.84436 26.1631 11.6073 27.0148 15.8038 25.7966L15.804 25.7965C20.5728 24.4112 24.5052 20.8248 26.0088 15.4723L26.01 15.4678C26.441 13.9037 26.6613 12.2893 26.6652 10.6673C26.6659 10.6658 26.6665 10.6642 26.6672 10.6626C26.709 10.5673 26.7749 10.4308 26.8649 10.2517C26.9637 10.0552 27.0763 9.83735 27.2012 9.59569C27.3097 9.38564 27.4276 9.1576 27.5537 8.90996C28.0559 7.9244 28.6732 6.66425 28.9026 5.76585C28.9254 5.68456 28.9375 5.59945 28.9375 5.5125V5.51125C28.9375 5.03747 28.584 4.63816 28.1137 4.58067C27.9118 4.55599 27.7156 4.59766 27.5484 4.68966C26.7013 5.09946 25.8931 5.32081 24.9789 5.57114C24.8301 5.61191 24.6784 5.65344 24.5233 5.69669ZM26.3411 7.13653C26.0067 7.23592 25.6779 7.32572 25.3581 7.41304C25.0689 7.49201 24.7871 7.56896 24.5153 7.64916C24.1665 7.75211 23.7896 7.64399 23.5483 7.37177C22.5068 6.19641 20.9065 6.03166 19.1037 6.70671C17.4567 7.32346 16.4144 8.80885 16.4374 10.4871L16.4375 10.5V11.75C16.4375 12.2584 16.0322 12.6742 15.5239 12.6872C11.6981 12.785 8.2306 11.2671 5.74279 8.53884C5.73771 8.55313 5.73263 8.56751 5.72755 8.58198C5.41919 9.46029 5.11502 10.6558 5.10212 11.9622C5.08929 13.2614 5.36388 14.6542 6.19616 15.9691C7.0271 17.282 8.45798 18.5871 10.8746 19.6406C11.1891 19.7777 11.4036 20.0756 11.4338 20.4174C11.4641 20.7591 11.3052 21.09 11.0197 21.2802C9.57097 22.2453 8.08079 23.0515 6.44998 23.5164C9.49787 24.5837 12.5711 24.7826 15.2809 23.996C19.4615 22.7815 22.8836 19.6612 24.203 14.9675C24.6008 13.5231 24.7983 12.0309 24.79 10.5327C24.7889 10.3455 24.8434 10.186 24.8595 10.1388L24.8608 10.1351C24.8869 10.0583 24.9191 9.9803 24.95 9.9098C25.0126 9.76702 25.097 9.594 25.1898 9.40941C25.2886 9.21286 25.4119 8.97409 25.544 8.71828C25.654 8.50541 25.77 8.28074 25.8831 8.05878C26.0404 7.75004 26.1959 7.43874 26.3411 7.13653Z" fill="white"/>
</svg>
