<svg width="27" height="23" viewBox="0 0 27 23" fill="none" xmlns="http://www.w3.org/2000/svg">
<path fill-rule="evenodd" clip-rule="evenodd" d="M22.5345 1.55997C20.8035 0.00785926 18.4755 0.0584069 16.4574 0.814062C14.1141 1.69153 12.5421 3.85804 12.5737 6.36939V6.66361C9.20944 6.48397 6.2501 4.82843 4.27349 2.06754C4.08693 1.80696 3.7802 1.65973 3.46021 1.67717C3.14021 1.6946 2.85129 1.87428 2.69415 2.15358L3.51121 2.61328C2.69415 2.15358 2.69389 2.15403 2.69362 2.15452L2.69297 2.15567L2.69132 2.15863L2.68662 2.1671L2.67185 2.19418C2.65969 2.21667 2.643 2.248 2.62243 2.28773C2.58131 2.36717 2.52458 2.48038 2.45744 2.62386C2.32331 2.91049 2.14666 3.31997 1.96965 3.82415C1.61746 4.82729 1.25398 6.23321 1.23844 7.80699C1.22283 9.38799 1.55902 11.154 2.62307 12.8352C3.46819 14.1704 4.74472 15.4082 6.58271 16.4499C4.81657 17.4366 3.06009 18.0048 1.04767 17.9265C0.612588 17.9096 0.223115 18.1944 0.107413 18.6142C-0.0082899 19.0339 0.180235 19.4781 0.562544 19.6864C4.85559 22.0263 9.61852 22.8781 13.8151 21.6599L13.8152 21.6598C18.584 20.2745 22.5164 16.6881 24.02 11.3356L24.0213 11.3311C24.4522 9.76695 24.6725 8.15253 24.6764 6.53058C24.6771 6.52905 24.6778 6.52749 24.6785 6.52591C24.7202 6.4306 24.7861 6.29404 24.8762 6.11496C24.975 5.91848 25.0875 5.70064 25.2124 5.45897C25.321 5.24892 25.4388 5.02088 25.565 4.77324C26.0671 3.78769 26.6844 2.52753 26.9139 1.62913C26.9367 1.54784 26.9487 1.46273 26.9487 1.37578V1.37453C26.9487 0.900753 26.5952 0.501441 26.125 0.443955C25.923 0.419271 25.7268 0.460944 25.5596 0.552943C24.7126 0.962743 23.9043 1.18409 22.9902 1.43442C22.8413 1.47519 22.6896 1.51673 22.5345 1.55997ZM24.3523 2.99981C24.018 3.0992 23.6891 3.189 23.3693 3.27632C23.0801 3.35529 22.7983 3.43224 22.5265 3.51244C22.1777 3.61539 21.8008 3.50727 21.5596 3.23505C20.518 2.05969 18.9177 1.89494 17.115 2.56999C15.4679 3.18674 14.4256 4.67213 14.4486 6.35042L14.4487 6.36328V7.61328C14.4487 8.12171 14.0434 8.53747 13.5352 8.55047C9.70929 8.64833 6.24183 7.13033 3.75402 4.40212C3.74894 4.41641 3.74386 4.43079 3.73878 4.44526C3.43042 5.32357 3.12625 6.51913 3.11335 7.8255C3.10052 9.12466 3.37511 10.5174 4.20739 11.8324C5.03833 13.1453 6.46922 14.4503 8.88586 15.5039C9.20034 15.641 9.41482 15.9389 9.44506 16.2806C9.4753 16.6224 9.31647 16.9533 9.03095 17.1435C7.5822 18.1086 6.09203 18.9147 4.46121 19.3796C7.5091 20.447 10.5824 20.6458 13.2922 19.8592C17.4727 18.6448 20.8949 15.5245 22.2142 10.8308C22.612 9.38636 22.8095 7.89415 22.8012 6.39597C22.8002 6.20873 22.8546 6.04929 22.8707 6.00212L22.872 5.99833C22.8981 5.92163 22.9303 5.84358 22.9612 5.77308C23.0238 5.6303 23.1082 5.45728 23.201 5.27269C23.2998 5.07614 23.4231 4.83737 23.5553 4.58156C23.6652 4.36869 23.7812 4.14402 23.8943 3.92206C24.0516 3.61332 24.2071 3.30202 24.3523 2.99981Z" fill="url(#paint0_linear_485_61)"/>
<defs>
<linearGradient id="paint0_linear_485_61" x1="0.0736083" y1="11.2575" x2="26.9487" y2="11.2575" gradientUnits="userSpaceOnUse">
<stop stop-color="#5472F6"/>
<stop offset="1" stop-color="#DD3EF0"/>
</linearGradient>
</defs>
</svg>
