<svg width="48" height="49" viewBox="0 0 48 49" fill="none" xmlns="http://www.w3.org/2000/svg">
<path d="M10 0.5H48.5V48.5H10C4.7533 48.5 0.5 44.2467 0.5 39V10C0.5 4.7533 4.75329 0.5 10 0.5Z" fill="url(#paint0_linear_63_338)"/>
<path fill-rule="evenodd" clip-rule="evenodd" d="M33.5233 14.6967C31.7923 13.1446 29.4642 13.1951 27.4462 13.9508C25.1029 14.8282 23.5309 16.9948 23.5625 19.5061V19.8003C20.1982 19.6207 17.2389 17.9652 15.2623 15.2043C15.0757 14.9437 14.769 14.7965 14.449 14.8139C14.129 14.8313 13.8401 15.011 13.6829 15.2903L14.5 15.75C13.6829 15.2903 13.6827 15.2908 13.6824 15.2912L13.6817 15.2924L13.6801 15.2953L13.6754 15.3038L13.6606 15.3309C13.6485 15.3534 13.6318 15.3847 13.6112 15.4245C13.5701 15.5039 13.5134 15.6171 13.4462 15.7606C13.3121 16.0472 13.1354 16.4567 12.9584 16.9609C12.6062 17.964 12.2427 19.3699 12.2272 20.9437C12.2116 22.5247 12.5478 24.2908 13.6118 25.9719C14.457 27.3072 15.7335 28.545 17.5715 29.5866C15.8053 30.5734 14.0489 31.1415 12.0364 31.0632C11.6014 31.0463 11.2119 31.3311 11.0962 31.7509C10.9805 32.1706 11.169 32.6148 11.5513 32.8232C15.8444 35.1631 20.6073 36.0148 24.8038 34.7966L24.804 34.7965C29.5728 33.4112 33.5052 29.8248 35.0088 24.4723L35.01 24.4678C35.441 22.9037 35.6613 21.2893 35.6652 19.6673C35.6659 19.6658 35.6665 19.6642 35.6672 19.6626C35.709 19.5673 35.7749 19.4308 35.8649 19.2517C35.9637 19.0552 36.0763 18.8374 36.2012 18.5957C36.3097 18.3856 36.4276 18.1576 36.5537 17.91C37.0559 16.9244 37.6732 15.6642 37.9026 14.7658C37.9254 14.6846 37.9375 14.5994 37.9375 14.5125V14.5112C37.9375 14.0375 37.584 13.6382 37.1137 13.5807C36.9118 13.556 36.7156 13.5977 36.5484 13.6897C35.7013 14.0995 34.8931 14.3208 33.9789 14.5711C33.8301 14.6119 33.6784 14.6534 33.5233 14.6967ZM35.3411 16.1365C35.0067 16.2359 34.6779 16.3257 34.3581 16.413C34.0689 16.492 33.7871 16.569 33.5153 16.6492C33.1665 16.7521 32.7896 16.644 32.5483 16.3718C31.5068 15.1964 29.9065 15.0317 28.1037 15.7067C26.4567 16.3235 25.4144 17.8089 25.4374 19.4871L25.4375 19.5V20.75C25.4375 21.2584 25.0322 21.6742 24.5239 21.6872C20.6981 21.785 17.2306 20.2671 14.7428 17.5388C14.7377 17.5531 14.7326 17.5675 14.7276 17.582C14.4192 18.4603 14.115 19.6559 14.1021 20.9622C14.0893 22.2614 14.3639 23.6542 15.1962 24.9691C16.0271 26.282 17.458 27.5871 19.8746 28.6406C20.1891 28.7777 20.4036 29.0756 20.4338 29.4174C20.4641 29.7591 20.3052 30.09 20.0197 30.2802C18.571 31.2453 17.0808 32.0515 15.45 32.5164C18.4979 33.5837 21.5711 33.7826 24.2809 32.996C28.4615 31.7815 31.8836 28.6612 33.203 23.9675C33.6008 22.5231 33.7983 21.0309 33.79 19.5327C33.7889 19.3455 33.8434 19.186 33.8595 19.1388L33.8608 19.1351C33.8869 19.0583 33.9191 18.9803 33.95 18.9098C34.0126 18.767 34.097 18.594 34.1898 18.4094C34.2886 18.2129 34.4119 17.9741 34.544 17.7183C34.654 17.5054 34.77 17.2807 34.8831 17.0588C35.0404 16.75 35.1959 16.4387 35.3411 16.1365Z" fill="white"/>
<path d="M10 0.5H48.5V48.5H10C4.7533 48.5 0.5 44.2467 0.5 39V10C0.5 4.7533 4.75329 0.5 10 0.5Z" stroke="url(#paint1_linear_63_338)"/>
<defs>
<linearGradient id="paint0_linear_63_338" x1="0" y1="49" x2="49" y2="0" gradientUnits="userSpaceOnUse">
<stop stop-color="#5472F6" stop-opacity="0.1"/>
<stop offset="1" stop-color="#DD3EF0" stop-opacity="0.1"/>
</linearGradient>
<linearGradient id="paint1_linear_63_338" x1="-1.82539e-07" y1="24.5" x2="49" y2="24.5" gradientUnits="userSpaceOnUse">
<stop stop-color="#5472F6"/>
<stop offset="1" stop-color="#DD3EF0"/>
</linearGradient>
</defs>
</svg>
