<svg width="31" height="31" viewBox="0 0 33 19" fill="none" xmlns="http://www.w3.org/2000/svg">
<path d="M9.524 1.5L9.52555 1.49999C10.5779 1.49836 11.6202 1.70403 12.593 2.10528C13.5658 2.50652 14.45 3.09546 15.1952 3.83848C15.9403 4.5815 16.5318 5.46403 16.9359 6.43567C17.3399 7.40731 17.5486 8.44902 17.55 9.50133C17.5493 13.9158 13.9599 17.5 9.524 17.5H9.52267C8.47052 17.5014 7.42839 17.2955 6.45579 16.8942C5.4832 16.4929 4.59918 15.9039 3.8542 15.1609C3.10923 14.4179 2.51789 13.5354 2.11396 12.5639C1.71011 11.5926 1.50149 10.5513 1.5 9.49934C1.50036 5.08252 5.0899 1.5 9.524 1.5ZM27.45 9.5C27.45 11.7093 26.971 13.6594 26.2459 15.0209C25.4977 16.4256 24.6343 16.972 23.938 16.972C23.2419 16.972 22.3785 16.4254 21.6301 15.0202C20.9049 13.6584 20.426 11.7083 20.426 9.5C20.426 7.29066 20.905 5.3406 21.6301 3.97909C22.3783 2.57435 23.2417 2.028 23.938 2.028C24.6341 2.028 25.4975 2.57458 26.2459 3.97978C26.9711 5.34162 27.45 7.29171 27.45 9.5ZM31.5 9.5C31.5 11.5486 31.3258 13.3743 31.0564 14.6623C31.0098 14.8852 30.9616 15.0858 30.9129 15.2643C30.8642 15.0857 30.816 14.8848 30.7694 14.6617C30.5002 13.3733 30.326 11.5476 30.326 9.5C30.326 7.45136 30.5002 5.62573 30.7696 4.3377C30.8162 4.11467 30.8645 3.91394 30.9132 3.73538C30.9619 3.91391 31.0101 4.11458 31.0566 4.33753C31.3258 5.62568 31.5 7.45139 31.5 9.5Z" stroke="white" stroke-width="2"/>
</svg>
