<svg width="48" height="49" viewBox="0 0 48 49" fill="none" xmlns="http://www.w3.org/2000/svg">
<path d="M0.5 10C0.5 4.7533 4.75329 0.5 10 0.5H48.5V48.5H10C4.7533 48.5 0.5 44.2467 0.5 39V10Z" fill="url(#paint0_linear_63_360)"/>
<path fill-rule="evenodd" clip-rule="evenodd" d="M18.25 16.6875C16.0063 16.6875 14.1875 18.5063 14.1875 20.75V28.25C14.1875 30.4937 16.0063 32.3125 18.25 32.3125H30.75C32.9937 32.3125 34.8125 30.4937 34.8125 28.25V20.75C34.8125 18.5063 32.9937 16.6875 30.75 16.6875H18.25ZM12.3125 20.75C12.3125 17.4708 14.9708 14.8125 18.25 14.8125H30.75C34.0292 14.8125 36.6875 17.4708 36.6875 20.75V28.25C36.6875 31.5292 34.0292 34.1875 30.75 34.1875H18.25C14.9708 34.1875 12.3125 31.5292 12.3125 28.25V20.75Z" fill="white"/>
<path fill-rule="evenodd" clip-rule="evenodd" d="M21.5381 19.9342C21.832 19.7678 22.1927 19.7723 22.4823 19.9461L28.7323 23.6961C29.0147 23.8655 29.1875 24.1707 29.1875 24.5C29.1875 24.8293 29.0147 25.1345 28.7323 25.3039L22.4823 29.0539C22.1927 29.2277 21.832 29.2322 21.5381 29.0658C21.2442 28.8994 21.0625 28.5878 21.0625 28.25V20.75C21.0625 20.4122 21.2442 20.1006 21.5381 19.9342ZM22.9375 22.4058V26.5942L26.4278 24.5L22.9375 22.4058Z" fill="white"/>
<path d="M0.5 10C0.5 4.7533 4.75329 0.5 10 0.5H48.5V48.5H10C4.7533 48.5 0.5 44.2467 0.5 39V10Z" stroke="url(#paint1_linear_63_360)"/>
<defs>
<linearGradient id="paint0_linear_63_360" x1="0" y1="49" x2="49" y2="0" gradientUnits="userSpaceOnUse">
<stop stop-color="#5472F6" stop-opacity="0.1"/>
<stop offset="1" stop-color="#DD3EF0" stop-opacity="0.1"/>
</linearGradient>
<linearGradient id="paint1_linear_63_360" x1="-1.82539e-07" y1="24.5" x2="49" y2="24.5" gradientUnits="userSpaceOnUse">
<stop stop-color="#5472F6"/>
<stop offset="1" stop-color="#DD3EF0"/>
</linearGradient>
</defs>
</svg>
