<svg width="31" height="31" viewBox="0 0 31 31" fill="none" xmlns="http://www.w3.org/2000/svg">
<path fill-rule="evenodd" clip-rule="evenodd" d="M9.25 7.6875C7.00634 7.6875 5.1875 9.50634 5.1875 11.75V19.25C5.1875 21.4937 7.00634 23.3125 9.25 23.3125H21.75C23.9937 23.3125 25.8125 21.4937 25.8125 19.25V11.75C25.8125 9.50634 23.9937 7.6875 21.75 7.6875H9.25ZM3.3125 11.75C3.3125 8.47081 5.97081 5.8125 9.25 5.8125H21.75C25.0292 5.8125 27.6875 8.47081 27.6875 11.75V19.25C27.6875 22.5292 25.0292 25.1875 21.75 25.1875H9.25C5.97081 25.1875 3.3125 22.5292 3.3125 19.25V11.75Z" fill="white"/>
<path fill-rule="evenodd" clip-rule="evenodd" d="M12.5381 10.9342C12.832 10.7678 13.1927 10.7723 13.4823 10.9461L19.7323 14.6961C20.0147 14.8655 20.1875 15.1707 20.1875 15.5C20.1875 15.8293 20.0147 16.1345 19.7323 16.3039L13.4823 20.0539C13.1927 20.2277 12.832 20.2322 12.5381 20.0658C12.2442 19.8994 12.0625 19.5878 12.0625 19.25V11.75C12.0625 11.4122 12.2442 11.1006 12.5381 10.9342ZM13.9375 13.4058V17.5942L17.4278 15.5L13.9375 13.4058Z" fill="white"/>
</svg>
